<svg width="1440" height="378" viewBox="0 0 1440 378" fill="none" xmlns="http://www.w3.org/2000/svg">
<rect width="1440" height="378" fill="#F6F6F6"/>
<rect x="0.5" y="0.5" width="1439" height="377" stroke="#BDB8B8" stroke-opacity="0.46"/>
<path d="M153.428 55.4062V81H150.088V55.4062H153.428ZM161.654 55.4062V58.1836H141.879V55.4062H161.654ZM168.211 54V81H164.959V54H168.211ZM167.438 70.7695L166.084 70.7168C166.096 69.416 166.289 68.2148 166.664 67.1133C167.039 66 167.566 65.0332 168.246 64.2129C168.926 63.3926 169.734 62.7598 170.672 62.3145C171.621 61.8574 172.67 61.6289 173.818 61.6289C174.756 61.6289 175.6 61.7578 176.35 62.0156C177.1 62.2617 177.738 62.6602 178.266 63.2109C178.805 63.7617 179.215 64.4766 179.496 65.3555C179.777 66.2227 179.918 67.2832 179.918 68.5371V81H176.648V68.502C176.648 67.5059 176.502 66.709 176.209 66.1113C175.916 65.502 175.488 65.0625 174.926 64.793C174.363 64.5117 173.672 64.3711 172.852 64.3711C172.043 64.3711 171.305 64.541 170.637 64.8809C169.98 65.2207 169.412 65.6895 168.932 66.2871C168.463 66.8848 168.094 67.5703 167.824 68.3438C167.566 69.1055 167.438 69.9141 167.438 70.7695ZM192.68 81.3516C191.355 81.3516 190.154 81.1289 189.076 80.6836C188.01 80.2266 187.09 79.5879 186.316 78.7676C185.555 77.9473 184.969 76.9746 184.559 75.8496C184.148 74.7246 183.943 73.4941 183.943 72.1582V71.4199C183.943 69.873 184.172 68.4961 184.629 67.2891C185.086 66.0703 185.707 65.0391 186.492 64.1953C187.277 63.3516 188.168 62.7129 189.164 62.2793C190.16 61.8457 191.191 61.6289 192.258 61.6289C193.617 61.6289 194.789 61.8633 195.773 62.332C196.77 62.8008 197.584 63.457 198.217 64.3008C198.85 65.1328 199.318 66.1172 199.623 67.2539C199.928 68.3789 200.08 69.6094 200.08 70.9453V72.4043H185.877V69.75H196.828V69.5039C196.781 68.6602 196.605 67.8398 196.301 67.043C196.008 66.2461 195.539 65.5898 194.895 65.0742C194.25 64.5586 193.371 64.3008 192.258 64.3008C191.52 64.3008 190.84 64.459 190.219 64.7754C189.598 65.0801 189.064 65.5371 188.619 66.1465C188.174 66.7559 187.828 67.5 187.582 68.3789C187.336 69.2578 187.213 70.2715 187.213 71.4199V72.1582C187.213 73.0605 187.336 73.9102 187.582 74.707C187.84 75.4922 188.209 76.1836 188.689 76.7812C189.182 77.3789 189.773 77.8477 190.465 78.1875C191.168 78.5273 191.965 78.6973 192.855 78.6973C194.004 78.6973 194.977 78.4629 195.773 77.9941C196.57 77.5254 197.268 76.8984 197.865 76.1133L199.834 77.6777C199.424 78.2988 198.902 78.8906 198.27 79.4531C197.637 80.0156 196.857 80.4727 195.932 80.8242C195.018 81.1758 193.934 81.3516 192.68 81.3516ZM207.129 64.9688V81H203.877V61.9805H207.041L207.129 64.9688ZM213.07 61.875L213.053 64.8984C212.783 64.8398 212.525 64.8047 212.279 64.793C212.045 64.7695 211.775 64.7578 211.471 64.7578C210.721 64.7578 210.059 64.875 209.484 65.1094C208.91 65.3438 208.424 65.6719 208.025 66.0938C207.627 66.5156 207.311 67.0195 207.076 67.6055C206.854 68.1797 206.707 68.8125 206.637 69.5039L205.723 70.0312C205.723 68.8828 205.834 67.8047 206.057 66.7969C206.291 65.7891 206.648 64.8984 207.129 64.125C207.609 63.3398 208.219 62.7305 208.957 62.2969C209.707 61.8516 210.598 61.6289 211.629 61.6289C211.863 61.6289 212.133 61.6582 212.438 61.7168C212.742 61.7637 212.953 61.8164 213.07 61.875ZM223.617 81.3516C222.293 81.3516 221.092 81.1289 220.014 80.6836C218.947 80.2266 218.027 79.5879 217.254 78.7676C216.492 77.9473 215.906 76.9746 215.496 75.8496C215.086 74.7246 214.881 73.4941 214.881 72.1582V71.4199C214.881 69.873 215.109 68.4961 215.566 67.2891C216.023 66.0703 216.645 65.0391 217.43 64.1953C218.215 63.3516 219.105 62.7129 220.102 62.2793C221.098 61.8457 222.129 61.6289 223.195 61.6289C224.555 61.6289 225.727 61.8633 226.711 62.332C227.707 62.8008 228.521 63.457 229.154 64.3008C229.787 65.1328 230.256 66.1172 230.561 67.2539C230.865 68.3789 231.018 69.6094 231.018 70.9453V72.4043H216.814V69.75H227.766V69.5039C227.719 68.6602 227.543 67.8398 227.238 67.043C226.945 66.2461 226.477 65.5898 225.832 65.0742C225.188 64.5586 224.309 64.3008 223.195 64.3008C222.457 64.3008 221.777 64.459 221.156 64.7754C220.535 65.0801 220.002 65.5371 219.557 66.1465C219.111 66.7559 218.766 67.5 218.52 68.3789C218.273 69.2578 218.15 70.2715 218.15 71.4199V72.1582C218.15 73.0605 218.273 73.9102 218.52 74.707C218.777 75.4922 219.146 76.1836 219.627 76.7812C220.119 77.3789 220.711 77.8477 221.402 78.1875C222.105 78.5273 222.902 78.6973 223.793 78.6973C224.941 78.6973 225.914 78.4629 226.711 77.9941C227.508 77.5254 228.205 76.8984 228.803 76.1133L230.771 77.6777C230.361 78.2988 229.84 78.8906 229.207 79.4531C228.574 80.0156 227.795 80.4727 226.869 80.8242C225.955 81.1758 224.871 81.3516 223.617 81.3516ZM236.695 54V56.25C236.695 56.9531 236.572 57.6973 236.326 58.4824C236.092 59.2559 235.746 60.0059 235.289 60.7324C234.832 61.4473 234.281 62.0742 233.637 62.6133L231.773 61.3301C232.324 60.5566 232.74 59.7656 233.021 58.957C233.314 58.1367 233.461 57.252 233.461 56.3027V54H236.695ZM249.721 75.9551C249.721 75.4863 249.615 75.0527 249.404 74.6543C249.205 74.2441 248.789 73.875 248.156 73.5469C247.535 73.207 246.598 72.9141 245.344 72.668C244.289 72.4453 243.334 72.1816 242.479 71.877C241.635 71.5723 240.914 71.2031 240.316 70.7695C239.73 70.3359 239.279 69.8262 238.963 69.2402C238.646 68.6543 238.488 67.9688 238.488 67.1836C238.488 66.4336 238.652 65.7246 238.98 65.0566C239.32 64.3887 239.795 63.7969 240.404 63.2812C241.025 62.7656 241.77 62.3613 242.637 62.0684C243.504 61.7754 244.471 61.6289 245.537 61.6289C247.061 61.6289 248.361 61.8984 249.439 62.4375C250.518 62.9766 251.344 63.6973 251.918 64.5996C252.492 65.4902 252.779 66.4805 252.779 67.5703H249.527C249.527 67.043 249.369 66.5332 249.053 66.041C248.748 65.5371 248.297 65.1211 247.699 64.793C247.113 64.4648 246.393 64.3008 245.537 64.3008C244.635 64.3008 243.902 64.4414 243.34 64.7227C242.789 64.9922 242.385 65.3379 242.127 65.7598C241.881 66.1816 241.758 66.627 241.758 67.0957C241.758 67.4473 241.816 67.7637 241.934 68.0449C242.062 68.3145 242.285 68.5664 242.602 68.8008C242.918 69.0234 243.363 69.2344 243.938 69.4336C244.512 69.6328 245.244 69.832 246.135 70.0312C247.693 70.3828 248.977 70.8047 249.984 71.2969C250.992 71.7891 251.742 72.3926 252.234 73.1074C252.727 73.8223 252.973 74.6895 252.973 75.709C252.973 76.541 252.797 77.3027 252.445 77.9941C252.105 78.6855 251.607 79.2832 250.951 79.7871C250.307 80.2793 249.533 80.666 248.631 80.9473C247.74 81.2168 246.738 81.3516 245.625 81.3516C243.949 81.3516 242.531 81.0527 241.371 80.4551C240.211 79.8574 239.332 79.084 238.734 78.1348C238.137 77.1855 237.838 76.1836 237.838 75.1289H241.107C241.154 76.0195 241.412 76.7285 241.881 77.2559C242.35 77.7715 242.924 78.1406 243.604 78.3633C244.283 78.5742 244.957 78.6797 245.625 78.6797C246.516 78.6797 247.26 78.5625 247.857 78.3281C248.467 78.0938 248.93 77.7715 249.246 77.3613C249.562 76.9512 249.721 76.4824 249.721 75.9551ZM269.408 65.7598V81H266.139V61.9805H269.232L269.408 65.7598ZM268.74 70.7695L267.229 70.7168C267.24 69.416 267.41 68.2148 267.738 67.1133C268.066 66 268.553 65.0332 269.197 64.2129C269.842 63.3926 270.645 62.7598 271.605 62.3145C272.566 61.8574 273.68 61.6289 274.945 61.6289C275.836 61.6289 276.656 61.7578 277.406 62.0156C278.156 62.2617 278.807 62.6543 279.357 63.1934C279.908 63.7324 280.336 64.4238 280.641 65.2676C280.945 66.1113 281.098 67.1309 281.098 68.3262V81H277.846V68.4844C277.846 67.4883 277.676 66.6914 277.336 66.0938C277.008 65.4961 276.539 65.0625 275.93 64.793C275.32 64.5117 274.605 64.3711 273.785 64.3711C272.824 64.3711 272.021 64.541 271.377 64.8809C270.732 65.2207 270.217 65.6895 269.83 66.2871C269.443 66.8848 269.162 67.5703 268.986 68.3438C268.822 69.1055 268.74 69.9141 268.74 70.7695ZM281.062 68.9766L278.883 69.6445C278.895 68.6016 279.064 67.5996 279.393 66.6387C279.732 65.6777 280.219 64.8223 280.852 64.0723C281.496 63.3223 282.287 62.7305 283.225 62.2969C284.162 61.8516 285.234 61.6289 286.441 61.6289C287.461 61.6289 288.363 61.7637 289.148 62.0332C289.945 62.3027 290.613 62.7188 291.152 63.2812C291.703 63.832 292.119 64.541 292.4 65.4082C292.682 66.2754 292.822 67.3066 292.822 68.502V81H289.553V68.4668C289.553 67.4004 289.383 66.5742 289.043 65.9883C288.715 65.3906 288.246 64.9746 287.637 64.7402C287.039 64.4941 286.324 64.3711 285.492 64.3711C284.777 64.3711 284.145 64.4941 283.594 64.7402C283.043 64.9863 282.58 65.3262 282.205 65.7598C281.83 66.1816 281.543 66.668 281.344 67.2188C281.156 67.7695 281.062 68.3555 281.062 68.9766ZM296.883 71.7012V71.2969C296.883 69.9258 297.082 68.6543 297.48 67.4824C297.879 66.2988 298.453 65.2734 299.203 64.4062C299.953 63.5273 300.861 62.8477 301.928 62.3672C302.994 61.875 304.189 61.6289 305.514 61.6289C306.85 61.6289 308.051 61.875 309.117 62.3672C310.195 62.8477 311.109 63.5273 311.859 64.4062C312.621 65.2734 313.201 66.2988 313.6 67.4824C313.998 68.6543 314.197 69.9258 314.197 71.2969V71.7012C314.197 73.0723 313.998 74.3438 313.6 75.5156C313.201 76.6875 312.621 77.7129 311.859 78.5918C311.109 79.459 310.201 80.1387 309.135 80.6309C308.08 81.1113 306.885 81.3516 305.549 81.3516C304.213 81.3516 303.012 81.1113 301.945 80.6309C300.879 80.1387 299.965 79.459 299.203 78.5918C298.453 77.7129 297.879 76.6875 297.48 75.5156C297.082 74.3438 296.883 73.0723 296.883 71.7012ZM300.135 71.2969V71.7012C300.135 72.6504 300.246 73.5469 300.469 74.3906C300.691 75.2227 301.025 75.9609 301.471 76.6055C301.928 77.25 302.496 77.7598 303.176 78.1348C303.855 78.498 304.646 78.6797 305.549 78.6797C306.439 78.6797 307.219 78.498 307.887 78.1348C308.566 77.7598 309.129 77.25 309.574 76.6055C310.02 75.9609 310.354 75.2227 310.576 74.3906C310.811 73.5469 310.928 72.6504 310.928 71.7012V71.2969C310.928 70.3594 310.811 69.4746 310.576 68.6426C310.354 67.7988 310.014 67.0547 309.557 66.4102C309.111 65.7539 308.549 65.2383 307.869 64.8633C307.201 64.4883 306.416 64.3008 305.514 64.3008C304.623 64.3008 303.838 64.4883 303.158 64.8633C302.49 65.2383 301.928 65.7539 301.471 66.4102C301.025 67.0547 300.691 67.7988 300.469 68.6426C300.246 69.4746 300.135 70.3594 300.135 71.2969ZM321.527 64.9688V81H318.275V61.9805H321.439L321.527 64.9688ZM327.469 61.875L327.451 64.8984C327.182 64.8398 326.924 64.8047 326.678 64.793C326.443 64.7695 326.174 64.7578 325.869 64.7578C325.119 64.7578 324.457 64.875 323.883 65.1094C323.309 65.3438 322.822 65.6719 322.424 66.0938C322.025 66.5156 321.709 67.0195 321.475 67.6055C321.252 68.1797 321.105 68.8125 321.035 69.5039L320.121 70.0312C320.121 68.8828 320.232 67.8047 320.455 66.7969C320.689 65.7891 321.047 64.8984 321.527 64.125C322.008 63.3398 322.617 62.7305 323.355 62.2969C324.105 61.8516 324.996 61.6289 326.027 61.6289C326.262 61.6289 326.531 61.6582 326.836 61.7168C327.141 61.7637 327.352 61.8164 327.469 61.875ZM338.016 81.3516C336.691 81.3516 335.49 81.1289 334.412 80.6836C333.346 80.2266 332.426 79.5879 331.652 78.7676C330.891 77.9473 330.305 76.9746 329.895 75.8496C329.484 74.7246 329.279 73.4941 329.279 72.1582V71.4199C329.279 69.873 329.508 68.4961 329.965 67.2891C330.422 66.0703 331.043 65.0391 331.828 64.1953C332.613 63.3516 333.504 62.7129 334.5 62.2793C335.496 61.8457 336.527 61.6289 337.594 61.6289C338.953 61.6289 340.125 61.8633 341.109 62.332C342.105 62.8008 342.92 63.457 343.553 64.3008C344.186 65.1328 344.654 66.1172 344.959 67.2539C345.264 68.3789 345.416 69.6094 345.416 70.9453V72.4043H331.213V69.75H342.164V69.5039C342.117 68.6602 341.941 67.8398 341.637 67.043C341.344 66.2461 340.875 65.5898 340.23 65.0742C339.586 64.5586 338.707 64.3008 337.594 64.3008C336.855 64.3008 336.176 64.459 335.555 64.7754C334.934 65.0801 334.4 65.5371 333.955 66.1465C333.51 66.7559 333.164 67.5 332.918 68.3789C332.672 69.2578 332.549 70.2715 332.549 71.4199V72.1582C332.549 73.0605 332.672 73.9102 332.918 74.707C333.176 75.4922 333.545 76.1836 334.025 76.7812C334.518 77.3789 335.109 77.8477 335.801 78.1875C336.504 78.5273 337.301 78.6973 338.191 78.6973C339.34 78.6973 340.312 78.4629 341.109 77.9941C341.906 77.5254 342.604 76.8984 343.201 76.1133L345.17 77.6777C344.76 78.2988 344.238 78.8906 343.605 79.4531C342.973 80.0156 342.193 80.4727 341.268 80.8242C340.354 81.1758 339.27 81.3516 338.016 81.3516ZM366.105 61.9805V64.4766H355.822V61.9805H366.105ZM359.303 57.3574H362.555V76.2891C362.555 76.9336 362.654 77.4199 362.854 77.748C363.053 78.0762 363.311 78.293 363.627 78.3984C363.943 78.5039 364.283 78.5566 364.646 78.5566C364.916 78.5566 365.197 78.5332 365.49 78.4863C365.795 78.4277 366.023 78.3809 366.176 78.3457L366.193 81C365.936 81.082 365.596 81.1582 365.174 81.2285C364.764 81.3105 364.266 81.3516 363.68 81.3516C362.883 81.3516 362.15 81.1934 361.482 80.877C360.814 80.5605 360.281 80.0332 359.883 79.2949C359.496 78.5449 359.303 77.5371 359.303 76.2715V57.3574ZM368.707 71.7012V71.2969C368.707 69.9258 368.906 68.6543 369.305 67.4824C369.703 66.2988 370.277 65.2734 371.027 64.4062C371.777 63.5273 372.686 62.8477 373.752 62.3672C374.818 61.875 376.014 61.6289 377.338 61.6289C378.674 61.6289 379.875 61.875 380.941 62.3672C382.02 62.8477 382.934 63.5273 383.684 64.4062C384.445 65.2734 385.025 66.2988 385.424 67.4824C385.822 68.6543 386.021 69.9258 386.021 71.2969V71.7012C386.021 73.0723 385.822 74.3438 385.424 75.5156C385.025 76.6875 384.445 77.7129 383.684 78.5918C382.934 79.459 382.025 80.1387 380.959 80.6309C379.904 81.1113 378.709 81.3516 377.373 81.3516C376.037 81.3516 374.836 81.1113 373.77 80.6309C372.703 80.1387 371.789 79.459 371.027 78.5918C370.277 77.7129 369.703 76.6875 369.305 75.5156C368.906 74.3438 368.707 73.0723 368.707 71.7012ZM371.959 71.2969V71.7012C371.959 72.6504 372.07 73.5469 372.293 74.3906C372.516 75.2227 372.85 75.9609 373.295 76.6055C373.752 77.25 374.32 77.7598 375 78.1348C375.68 78.498 376.471 78.6797 377.373 78.6797C378.264 78.6797 379.043 78.498 379.711 78.1348C380.391 77.7598 380.953 77.25 381.398 76.6055C381.844 75.9609 382.178 75.2227 382.4 74.3906C382.635 73.5469 382.752 72.6504 382.752 71.7012V71.2969C382.752 70.3594 382.635 69.4746 382.4 68.6426C382.178 67.7988 381.838 67.0547 381.381 66.4102C380.936 65.7539 380.373 65.2383 379.693 64.8633C379.025 64.4883 378.24 64.3008 377.338 64.3008C376.447 64.3008 375.662 64.4883 374.982 64.8633C374.314 65.2383 373.752 65.7539 373.295 66.4102C372.85 67.0547 372.516 67.7988 372.293 68.6426C372.07 69.4746 371.959 70.3594 371.959 71.2969ZM402.562 54V81H399.293V54H402.562ZM406.922 71.7012V71.2969C406.922 69.9258 407.121 68.6543 407.52 67.4824C407.918 66.2988 408.492 65.2734 409.242 64.4062C409.992 63.5273 410.9 62.8477 411.967 62.3672C413.033 61.875 414.229 61.6289 415.553 61.6289C416.889 61.6289 418.09 61.875 419.156 62.3672C420.234 62.8477 421.148 63.5273 421.898 64.4062C422.66 65.2734 423.24 66.2988 423.639 67.4824C424.037 68.6543 424.236 69.9258 424.236 71.2969V71.7012C424.236 73.0723 424.037 74.3438 423.639 75.5156C423.24 76.6875 422.66 77.7129 421.898 78.5918C421.148 79.459 420.24 80.1387 419.174 80.6309C418.119 81.1113 416.924 81.3516 415.588 81.3516C414.252 81.3516 413.051 81.1113 411.984 80.6309C410.918 80.1387 410.004 79.459 409.242 78.5918C408.492 77.7129 407.918 76.6875 407.52 75.5156C407.121 74.3438 406.922 73.0723 406.922 71.7012ZM410.174 71.2969V71.7012C410.174 72.6504 410.285 73.5469 410.508 74.3906C410.73 75.2227 411.064 75.9609 411.51 76.6055C411.967 77.25 412.535 77.7598 413.215 78.1348C413.895 78.498 414.686 78.6797 415.588 78.6797C416.479 78.6797 417.258 78.498 417.926 78.1348C418.605 77.7598 419.168 77.25 419.613 76.6055C420.059 75.9609 420.393 75.2227 420.615 74.3906C420.85 73.5469 420.967 72.6504 420.967 71.7012V71.2969C420.967 70.3594 420.85 69.4746 420.615 68.6426C420.393 67.7988 420.053 67.0547 419.596 66.4102C419.15 65.7539 418.588 65.2383 417.908 64.8633C417.24 64.4883 416.455 64.3008 415.553 64.3008C414.662 64.3008 413.877 64.4883 413.197 64.8633C412.529 65.2383 411.967 65.7539 411.51 66.4102C411.064 67.0547 410.73 67.7988 410.508 68.6426C410.285 69.4746 410.174 70.3594 410.174 71.2969ZM433.816 78.0645L439.02 61.9805H442.342L435.504 81H433.324L433.816 78.0645ZM429.475 61.9805L434.836 78.1523L435.205 81H433.025L426.135 61.9805H429.475ZM453.117 81.3516C451.793 81.3516 450.592 81.1289 449.514 80.6836C448.447 80.2266 447.527 79.5879 446.754 78.7676C445.992 77.9473 445.406 76.9746 444.996 75.8496C444.586 74.7246 444.381 73.4941 444.381 72.1582V71.4199C444.381 69.873 444.609 68.4961 445.066 67.2891C445.523 66.0703 446.145 65.0391 446.93 64.1953C447.715 63.3516 448.605 62.7129 449.602 62.2793C450.598 61.8457 451.629 61.6289 452.695 61.6289C454.055 61.6289 455.227 61.8633 456.211 62.332C457.207 62.8008 458.021 63.457 458.654 64.3008C459.287 65.1328 459.756 66.1172 460.061 67.2539C460.365 68.3789 460.518 69.6094 460.518 70.9453V72.4043H446.314V69.75H457.266V69.5039C457.219 68.6602 457.043 67.8398 456.738 67.043C456.445 66.2461 455.977 65.5898 455.332 65.0742C454.688 64.5586 453.809 64.3008 452.695 64.3008C451.957 64.3008 451.277 64.459 450.656 64.7754C450.035 65.0801 449.502 65.5371 449.057 66.1465C448.611 66.7559 448.266 67.5 448.02 68.3789C447.773 69.2578 447.65 70.2715 447.65 71.4199V72.1582C447.65 73.0605 447.773 73.9102 448.02 74.707C448.277 75.4922 448.646 76.1836 449.127 76.7812C449.619 77.3789 450.211 77.8477 450.902 78.1875C451.605 78.5273 452.402 78.6973 453.293 78.6973C454.441 78.6973 455.414 78.4629 456.211 77.9941C457.008 77.5254 457.705 76.8984 458.303 76.1133L460.271 77.6777C459.861 78.2988 459.34 78.8906 458.707 79.4531C458.074 80.0156 457.295 80.4727 456.369 80.8242C455.455 81.1758 454.371 81.3516 453.117 81.3516ZM476.777 61.9805V81H473.508V61.9805H476.777ZM473.262 56.9355C473.262 56.4082 473.42 55.9629 473.736 55.5996C474.064 55.2363 474.545 55.0547 475.178 55.0547C475.799 55.0547 476.273 55.2363 476.602 55.5996C476.941 55.9629 477.111 56.4082 477.111 56.9355C477.111 57.4395 476.941 57.873 476.602 58.2363C476.273 58.5879 475.799 58.7637 475.178 58.7637C474.545 58.7637 474.064 58.5879 473.736 58.2363C473.42 57.873 473.262 57.4395 473.262 56.9355ZM485.25 66.041V81H481.998V61.9805H485.074L485.25 66.041ZM484.477 70.7695L483.123 70.7168C483.135 69.416 483.328 68.2148 483.703 67.1133C484.078 66 484.605 65.0332 485.285 64.2129C485.965 63.3926 486.773 62.7598 487.711 62.3145C488.66 61.8574 489.709 61.6289 490.857 61.6289C491.795 61.6289 492.639 61.7578 493.389 62.0156C494.139 62.2617 494.777 62.6602 495.305 63.2109C495.844 63.7617 496.254 64.4766 496.535 65.3555C496.816 66.2227 496.957 67.2832 496.957 68.5371V81H493.688V68.502C493.688 67.5059 493.541 66.709 493.248 66.1113C492.955 65.502 492.527 65.0625 491.965 64.793C491.402 64.5117 490.711 64.3711 489.891 64.3711C489.082 64.3711 488.344 64.541 487.676 64.8809C487.02 65.2207 486.451 65.6895 485.971 66.2871C485.502 66.8848 485.133 67.5703 484.863 68.3438C484.605 69.1055 484.477 69.9141 484.477 70.7695ZM518.789 61.9805V64.4766H508.506V61.9805H518.789ZM511.986 57.3574H515.238V76.2891C515.238 76.9336 515.338 77.4199 515.537 77.748C515.736 78.0762 515.994 78.293 516.311 78.3984C516.627 78.5039 516.967 78.5566 517.33 78.5566C517.6 78.5566 517.881 78.5332 518.174 78.4863C518.479 78.4277 518.707 78.3809 518.859 78.3457L518.877 81C518.619 81.082 518.279 81.1582 517.857 81.2285C517.447 81.3105 516.949 81.3516 516.363 81.3516C515.566 81.3516 514.834 81.1934 514.166 80.877C513.498 80.5605 512.965 80.0332 512.566 79.2949C512.18 78.5449 511.986 77.5371 511.986 76.2715V57.3574ZM525.855 54V81H522.604V54H525.855ZM525.082 70.7695L523.729 70.7168C523.74 69.416 523.934 68.2148 524.309 67.1133C524.684 66 525.211 65.0332 525.891 64.2129C526.57 63.3926 527.379 62.7598 528.316 62.3145C529.266 61.8574 530.314 61.6289 531.463 61.6289C532.4 61.6289 533.244 61.7578 533.994 62.0156C534.744 62.2617 535.383 62.6602 535.91 63.2109C536.449 63.7617 536.859 64.4766 537.141 65.3555C537.422 66.2227 537.562 67.2832 537.562 68.5371V81H534.293V68.502C534.293 67.5059 534.146 66.709 533.854 66.1113C533.561 65.502 533.133 65.0625 532.57 64.793C532.008 64.5117 531.316 64.3711 530.496 64.3711C529.688 64.3711 528.949 64.541 528.281 64.8809C527.625 65.2207 527.057 65.6895 526.576 66.2871C526.107 66.8848 525.738 67.5703 525.469 68.3438C525.211 69.1055 525.082 69.9141 525.082 70.7695ZM550.324 81.3516C549 81.3516 547.799 81.1289 546.721 80.6836C545.654 80.2266 544.734 79.5879 543.961 78.7676C543.199 77.9473 542.613 76.9746 542.203 75.8496C541.793 74.7246 541.588 73.4941 541.588 72.1582V71.4199C541.588 69.873 541.816 68.4961 542.273 67.2891C542.73 66.0703 543.352 65.0391 544.137 64.1953C544.922 63.3516 545.812 62.7129 546.809 62.2793C547.805 61.8457 548.836 61.6289 549.902 61.6289C551.262 61.6289 552.434 61.8633 553.418 62.332C554.414 62.8008 555.229 63.457 555.861 64.3008C556.494 65.1328 556.963 66.1172 557.268 67.2539C557.572 68.3789 557.725 69.6094 557.725 70.9453V72.4043H543.521V69.75H554.473V69.5039C554.426 68.6602 554.25 67.8398 553.945 67.043C553.652 66.2461 553.184 65.5898 552.539 65.0742C551.895 64.5586 551.016 64.3008 549.902 64.3008C549.164 64.3008 548.484 64.459 547.863 64.7754C547.242 65.0801 546.709 65.5371 546.264 66.1465C545.818 66.7559 545.473 67.5 545.227 68.3789C544.98 69.2578 544.857 70.2715 544.857 71.4199V72.1582C544.857 73.0605 544.98 73.9102 545.227 74.707C545.484 75.4922 545.854 76.1836 546.334 76.7812C546.826 77.3789 547.418 77.8477 548.109 78.1875C548.812 78.5273 549.609 78.6973 550.5 78.6973C551.648 78.6973 552.621 78.4629 553.418 77.9941C554.215 77.5254 554.912 76.8984 555.51 76.1133L557.479 77.6777C557.068 78.2988 556.547 78.8906 555.914 79.4531C555.281 80.0156 554.502 80.4727 553.576 80.8242C552.662 81.1758 551.578 81.3516 550.324 81.3516ZM581.666 77.748V67.957C581.666 67.207 581.514 66.5566 581.209 66.0059C580.916 65.4434 580.471 65.0098 579.873 64.7051C579.275 64.4004 578.537 64.248 577.658 64.248C576.838 64.248 576.117 64.3887 575.496 64.6699C574.887 64.9512 574.406 65.3203 574.055 65.7773C573.715 66.2344 573.545 66.7266 573.545 67.2539H570.293C570.293 66.5742 570.469 65.9004 570.82 65.2324C571.172 64.5645 571.676 63.9609 572.332 63.4219C573 62.8711 573.797 62.4375 574.723 62.1211C575.66 61.793 576.703 61.6289 577.852 61.6289C579.234 61.6289 580.453 61.8633 581.508 62.332C582.574 62.8008 583.406 63.5098 584.004 64.459C584.613 65.3965 584.918 66.5742 584.918 67.9922V76.8516C584.918 77.4844 584.971 78.1582 585.076 78.873C585.193 79.5879 585.363 80.2031 585.586 80.7188V81H582.193C582.029 80.625 581.9 80.127 581.807 79.5059C581.713 78.873 581.666 78.2871 581.666 77.748ZM582.229 69.4688L582.264 71.7539H578.977C578.051 71.7539 577.225 71.8301 576.498 71.9824C575.771 72.123 575.162 72.3398 574.67 72.6328C574.178 72.9258 573.803 73.2949 573.545 73.7402C573.287 74.1738 573.158 74.6836 573.158 75.2695C573.158 75.8672 573.293 76.4121 573.562 76.9043C573.832 77.3965 574.236 77.7891 574.775 78.082C575.326 78.3633 576 78.5039 576.797 78.5039C577.793 78.5039 578.672 78.293 579.434 77.8711C580.195 77.4492 580.799 76.9336 581.244 76.3242C581.701 75.7148 581.947 75.123 581.982 74.5488L583.371 76.1133C583.289 76.6055 583.066 77.1504 582.703 77.748C582.34 78.3457 581.854 78.9199 581.244 79.4707C580.646 80.0098 579.932 80.4609 579.1 80.8242C578.279 81.1758 577.354 81.3516 576.322 81.3516C575.033 81.3516 573.902 81.0996 572.93 80.5957C571.969 80.0918 571.219 79.418 570.68 78.5742C570.152 77.7188 569.889 76.7637 569.889 75.709C569.889 74.6895 570.088 73.793 570.486 73.0195C570.885 72.2344 571.459 71.584 572.209 71.0684C572.959 70.541 573.861 70.1426 574.916 69.873C575.971 69.6035 577.148 69.4688 578.449 69.4688H582.229ZM593.285 65.6367V88.3125H590.016V61.9805H593.004L593.285 65.6367ZM606.1 71.332V71.7012C606.1 73.084 605.936 74.3672 605.607 75.5508C605.279 76.7227 604.799 77.7422 604.166 78.6094C603.545 79.4766 602.777 80.1504 601.863 80.6309C600.949 81.1113 599.9 81.3516 598.717 81.3516C597.51 81.3516 596.443 81.1523 595.518 80.7539C594.592 80.3555 593.807 79.7754 593.162 79.0137C592.518 78.252 592.002 77.3379 591.615 76.2715C591.24 75.2051 590.982 74.0039 590.842 72.668V70.6992C590.982 69.293 591.246 68.0332 591.633 66.9199C592.02 65.8066 592.529 64.8574 593.162 64.0723C593.807 63.2754 594.586 62.6719 595.5 62.2617C596.414 61.8398 597.469 61.6289 598.664 61.6289C599.859 61.6289 600.92 61.8633 601.846 62.332C602.771 62.7891 603.551 63.4453 604.184 64.3008C604.816 65.1562 605.291 66.1816 605.607 67.377C605.936 68.5605 606.1 69.8789 606.1 71.332ZM602.83 71.7012V71.332C602.83 70.3828 602.73 69.4922 602.531 68.6602C602.332 67.8164 602.021 67.0781 601.6 66.4453C601.189 65.8008 600.662 65.2969 600.018 64.9336C599.373 64.5586 598.605 64.3711 597.715 64.3711C596.895 64.3711 596.18 64.5117 595.57 64.793C594.973 65.0742 594.463 65.4551 594.041 65.9355C593.619 66.4043 593.273 66.9434 593.004 67.5527C592.746 68.1504 592.553 68.7715 592.424 69.416V73.9688C592.658 74.7891 592.986 75.5625 593.408 76.2891C593.83 77.0039 594.393 77.584 595.096 78.0293C595.799 78.4629 596.684 78.6797 597.75 78.6797C598.629 78.6797 599.385 78.498 600.018 78.1348C600.662 77.7598 601.189 77.25 601.6 76.6055C602.021 75.9609 602.332 75.2227 602.531 74.3906C602.73 73.5469 602.83 72.6504 602.83 71.7012ZM613.5 65.6367V88.3125H610.23V61.9805H613.219L613.5 65.6367ZM626.314 71.332V71.7012C626.314 73.084 626.15 74.3672 625.822 75.5508C625.494 76.7227 625.014 77.7422 624.381 78.6094C623.76 79.4766 622.992 80.1504 622.078 80.6309C621.164 81.1113 620.115 81.3516 618.932 81.3516C617.725 81.3516 616.658 81.1523 615.732 80.7539C614.807 80.3555 614.021 79.7754 613.377 79.0137C612.732 78.252 612.217 77.3379 611.83 76.2715C611.455 75.2051 611.197 74.0039 611.057 72.668V70.6992C611.197 69.293 611.461 68.0332 611.848 66.9199C612.234 65.8066 612.744 64.8574 613.377 64.0723C614.021 63.2754 614.801 62.6719 615.715 62.2617C616.629 61.8398 617.684 61.6289 618.879 61.6289C620.074 61.6289 621.135 61.8633 622.061 62.332C622.986 62.7891 623.766 63.4453 624.398 64.3008C625.031 65.1562 625.506 66.1816 625.822 67.377C626.15 68.5605 626.314 69.8789 626.314 71.332ZM623.045 71.7012V71.332C623.045 70.3828 622.945 69.4922 622.746 68.6602C622.547 67.8164 622.236 67.0781 621.814 66.4453C621.404 65.8008 620.877 65.2969 620.232 64.9336C619.588 64.5586 618.82 64.3711 617.93 64.3711C617.109 64.3711 616.395 64.5117 615.785 64.793C615.188 65.0742 614.678 65.4551 614.256 65.9355C613.834 66.4043 613.488 66.9434 613.219 67.5527C612.961 68.1504 612.768 68.7715 612.639 69.416V73.9688C612.873 74.7891 613.201 75.5625 613.623 76.2891C614.045 77.0039 614.607 77.584 615.311 78.0293C616.014 78.4629 616.898 78.6797 617.965 78.6797C618.844 78.6797 619.6 78.498 620.232 78.1348C620.877 77.7598 621.404 77.25 621.814 76.6055C622.236 75.9609 622.547 75.2227 622.746 74.3906C622.945 73.5469 623.045 72.6504 623.045 71.7012ZM641.537 75.9551C641.537 75.4863 641.432 75.0527 641.221 74.6543C641.021 74.2441 640.605 73.875 639.973 73.5469C639.352 73.207 638.414 72.9141 637.16 72.668C636.105 72.4453 635.15 72.1816 634.295 71.877C633.451 71.5723 632.73 71.2031 632.133 70.7695C631.547 70.3359 631.096 69.8262 630.779 69.2402C630.463 68.6543 630.305 67.9688 630.305 67.1836C630.305 66.4336 630.469 65.7246 630.797 65.0566C631.137 64.3887 631.611 63.7969 632.221 63.2812C632.842 62.7656 633.586 62.3613 634.453 62.0684C635.32 61.7754 636.287 61.6289 637.354 61.6289C638.877 61.6289 640.178 61.8984 641.256 62.4375C642.334 62.9766 643.16 63.6973 643.734 64.5996C644.309 65.4902 644.596 66.4805 644.596 67.5703H641.344C641.344 67.043 641.186 66.5332 640.869 66.041C640.564 65.5371 640.113 65.1211 639.516 64.793C638.93 64.4648 638.209 64.3008 637.354 64.3008C636.451 64.3008 635.719 64.4414 635.156 64.7227C634.605 64.9922 634.201 65.3379 633.943 65.7598C633.697 66.1816 633.574 66.627 633.574 67.0957C633.574 67.4473 633.633 67.7637 633.75 68.0449C633.879 68.3145 634.102 68.5664 634.418 68.8008C634.734 69.0234 635.18 69.2344 635.754 69.4336C636.328 69.6328 637.061 69.832 637.951 70.0312C639.51 70.3828 640.793 70.8047 641.801 71.2969C642.809 71.7891 643.559 72.3926 644.051 73.1074C644.543 73.8223 644.789 74.6895 644.789 75.709C644.789 76.541 644.613 77.3027 644.262 77.9941C643.922 78.6855 643.424 79.2832 642.768 79.7871C642.123 80.2793 641.35 80.666 640.447 80.9473C639.557 81.2168 638.555 81.3516 637.441 81.3516C635.766 81.3516 634.348 81.0527 633.188 80.4551C632.027 79.8574 631.148 79.084 630.551 78.1348C629.953 77.1855 629.654 76.1836 629.654 75.1289H632.924C632.971 76.0195 633.229 76.7285 633.697 77.2559C634.166 77.7715 634.74 78.1406 635.42 78.3633C636.1 78.5742 636.773 78.6797 637.441 78.6797C638.332 78.6797 639.076 78.5625 639.674 78.3281C640.283 78.0938 640.746 77.7715 641.062 77.3613C641.379 76.9512 641.537 76.4824 641.537 75.9551Z" fill="black"/>
<rect x="144.5" y="136.5" width="556" height="194" stroke="black" stroke-opacity="0.3"/>
<rect x="170" y="159" width="150" height="150" fill="black"/>
<path d="M350.691 242H347.047L347.07 239.668H350.691C351.746 239.668 352.629 239.438 353.34 238.977C354.059 238.516 354.598 237.855 354.957 236.996C355.324 236.137 355.508 235.113 355.508 233.926V233C355.508 232.078 355.402 231.262 355.191 230.551C354.988 229.84 354.684 229.242 354.277 228.758C353.879 228.273 353.387 227.906 352.801 227.656C352.223 227.406 351.555 227.281 350.797 227.281H346.977V224.938H350.797C351.93 224.938 352.965 225.129 353.902 225.512C354.84 225.887 355.648 226.43 356.328 227.141C357.016 227.852 357.543 228.703 357.91 229.695C358.277 230.688 358.461 231.797 358.461 233.023V233.926C358.461 235.152 358.277 236.262 357.91 237.254C357.543 238.246 357.016 239.098 356.328 239.809C355.641 240.512 354.82 241.055 353.867 241.438C352.922 241.812 351.863 242 350.691 242ZM348.676 224.938V242H345.734V224.938H348.676ZM360.594 235.801V235.531C360.594 234.617 360.727 233.77 360.992 232.988C361.258 232.199 361.641 231.516 362.141 230.938C362.648 230.352 363.266 229.898 363.992 229.578C364.727 229.25 365.555 229.086 366.477 229.086C367.406 229.086 368.234 229.25 368.961 229.578C369.695 229.898 370.316 230.352 370.824 230.938C371.332 231.516 371.719 232.199 371.984 232.988C372.25 233.77 372.383 234.617 372.383 235.531V235.801C372.383 236.715 372.25 237.562 371.984 238.344C371.719 239.125 371.332 239.809 370.824 240.395C370.316 240.973 369.699 241.426 368.973 241.754C368.246 242.074 367.422 242.234 366.5 242.234C365.57 242.234 364.738 242.074 364.004 241.754C363.277 241.426 362.66 240.973 362.152 240.395C361.645 239.809 361.258 239.125 360.992 238.344C360.727 237.562 360.594 236.715 360.594 235.801ZM363.418 235.531V235.801C363.418 236.371 363.477 236.91 363.594 237.418C363.711 237.926 363.895 238.371 364.145 238.754C364.395 239.137 364.715 239.438 365.105 239.656C365.496 239.875 365.961 239.984 366.5 239.984C367.023 239.984 367.477 239.875 367.859 239.656C368.25 239.438 368.57 239.137 368.82 238.754C369.07 238.371 369.254 237.926 369.371 237.418C369.496 236.91 369.559 236.371 369.559 235.801V235.531C369.559 234.969 369.496 234.438 369.371 233.938C369.254 233.43 369.066 232.98 368.809 232.59C368.559 232.199 368.238 231.895 367.848 231.676C367.465 231.449 367.008 231.336 366.477 231.336C365.945 231.336 365.484 231.449 365.094 231.676C364.711 231.895 364.395 232.199 364.145 232.59C363.895 232.98 363.711 233.43 363.594 233.938C363.477 234.438 363.418 234.969 363.418 235.531ZM378.195 239.188L381.125 229.32H382.93L382.438 232.273L379.484 242H377.867L378.195 239.188ZM376.473 229.32L378.758 239.234L378.945 242H377.141L373.707 229.32H376.473ZM385.672 239.117L387.887 229.32H390.641L387.219 242H385.414L385.672 239.117ZM383.234 229.32L386.129 239.07L386.492 242H384.875L381.887 232.262L381.395 229.32H383.234ZM395.363 232.027V242H392.539V229.32H395.199L395.363 232.027ZM394.859 235.191L393.945 235.18C393.953 234.281 394.078 233.457 394.32 232.707C394.57 231.957 394.914 231.312 395.352 230.773C395.797 230.234 396.328 229.82 396.945 229.531C397.562 229.234 398.25 229.086 399.008 229.086C399.617 229.086 400.168 229.172 400.66 229.344C401.16 229.508 401.586 229.777 401.938 230.152C402.297 230.527 402.57 231.016 402.758 231.617C402.945 232.211 403.039 232.941 403.039 233.809V242H400.203V233.797C400.203 233.188 400.113 232.707 399.934 232.355C399.762 231.996 399.508 231.742 399.172 231.594C398.844 231.438 398.434 231.359 397.941 231.359C397.457 231.359 397.023 231.461 396.641 231.664C396.258 231.867 395.934 232.145 395.668 232.496C395.41 232.848 395.211 233.254 395.07 233.715C394.93 234.176 394.859 234.668 394.859 235.191ZM408.945 224V242H406.109V224H408.945ZM411.5 235.801V235.531C411.5 234.617 411.633 233.77 411.898 232.988C412.164 232.199 412.547 231.516 413.047 230.938C413.555 230.352 414.172 229.898 414.898 229.578C415.633 229.25 416.461 229.086 417.383 229.086C418.312 229.086 419.141 229.25 419.867 229.578C420.602 229.898 421.223 230.352 421.73 230.938C422.238 231.516 422.625 232.199 422.891 232.988C423.156 233.77 423.289 234.617 423.289 235.531V235.801C423.289 236.715 423.156 237.562 422.891 238.344C422.625 239.125 422.238 239.809 421.73 240.395C421.223 240.973 420.605 241.426 419.879 241.754C419.152 242.074 418.328 242.234 417.406 242.234C416.477 242.234 415.645 242.074 414.91 241.754C414.184 241.426 413.566 240.973 413.059 240.395C412.551 239.809 412.164 239.125 411.898 238.344C411.633 237.562 411.5 236.715 411.5 235.801ZM414.324 235.531V235.801C414.324 236.371 414.383 236.91 414.5 237.418C414.617 237.926 414.801 238.371 415.051 238.754C415.301 239.137 415.621 239.438 416.012 239.656C416.402 239.875 416.867 239.984 417.406 239.984C417.93 239.984 418.383 239.875 418.766 239.656C419.156 239.438 419.477 239.137 419.727 238.754C419.977 238.371 420.16 237.926 420.277 237.418C420.402 236.91 420.465 236.371 420.465 235.801V235.531C420.465 234.969 420.402 234.438 420.277 233.938C420.16 233.43 419.973 232.98 419.715 232.59C419.465 232.199 419.145 231.895 418.754 231.676C418.371 231.449 417.914 231.336 417.383 231.336C416.852 231.336 416.391 231.449 416 231.676C415.617 231.895 415.301 232.199 415.051 232.59C414.801 232.98 414.617 233.43 414.5 233.938C414.383 234.438 414.324 234.969 414.324 235.531ZM432.805 239.457V233.41C432.805 232.957 432.723 232.566 432.559 232.238C432.395 231.91 432.145 231.656 431.809 231.477C431.48 231.297 431.066 231.207 430.566 231.207C430.105 231.207 429.707 231.285 429.371 231.441C429.035 231.598 428.773 231.809 428.586 232.074C428.398 232.34 428.305 232.641 428.305 232.977H425.492C425.492 232.477 425.613 231.992 425.855 231.523C426.098 231.055 426.449 230.637 426.91 230.27C427.371 229.902 427.922 229.613 428.562 229.402C429.203 229.191 429.922 229.086 430.719 229.086C431.672 229.086 432.516 229.246 433.25 229.566C433.992 229.887 434.574 230.371 434.996 231.02C435.426 231.66 435.641 232.465 435.641 233.434V239.07C435.641 239.648 435.68 240.168 435.758 240.629C435.844 241.082 435.965 241.477 436.121 241.812V242H433.227C433.094 241.695 432.988 241.309 432.91 240.84C432.84 240.363 432.805 239.902 432.805 239.457ZM433.215 234.289L433.238 236.035H431.211C430.688 236.035 430.227 236.086 429.828 236.188C429.43 236.281 429.098 236.422 428.832 236.609C428.566 236.797 428.367 237.023 428.234 237.289C428.102 237.555 428.035 237.855 428.035 238.191C428.035 238.527 428.113 238.836 428.27 239.117C428.426 239.391 428.652 239.605 428.949 239.762C429.254 239.918 429.621 239.996 430.051 239.996C430.629 239.996 431.133 239.879 431.562 239.645C432 239.402 432.344 239.109 432.594 238.766C432.844 238.414 432.977 238.082 432.992 237.77L433.906 239.023C433.812 239.344 433.652 239.688 433.426 240.055C433.199 240.422 432.902 240.773 432.535 241.109C432.176 241.438 431.742 241.707 431.234 241.918C430.734 242.129 430.156 242.234 429.5 242.234C428.672 242.234 427.934 242.07 427.285 241.742C426.637 241.406 426.129 240.957 425.762 240.395C425.395 239.824 425.211 239.18 425.211 238.461C425.211 237.789 425.336 237.195 425.586 236.68C425.844 236.156 426.219 235.719 426.711 235.367C427.211 235.016 427.82 234.75 428.539 234.57C429.258 234.383 430.078 234.289 431 234.289H433.215ZM446.328 239.375V224H449.164V242H446.598L446.328 239.375ZM438.078 235.801V235.555C438.078 234.594 438.191 233.719 438.418 232.93C438.645 232.133 438.973 231.449 439.402 230.879C439.832 230.301 440.355 229.859 440.973 229.555C441.59 229.242 442.285 229.086 443.059 229.086C443.824 229.086 444.496 229.234 445.074 229.531C445.652 229.828 446.145 230.254 446.551 230.809C446.957 231.355 447.281 232.012 447.523 232.777C447.766 233.535 447.938 234.379 448.039 235.309V236.094C447.938 237 447.766 237.828 447.523 238.578C447.281 239.328 446.957 239.977 446.551 240.523C446.145 241.07 445.648 241.492 445.062 241.789C444.484 242.086 443.809 242.234 443.035 242.234C442.27 242.234 441.578 242.074 440.961 241.754C440.352 241.434 439.832 240.984 439.402 240.406C438.973 239.828 438.645 239.148 438.418 238.367C438.191 237.578 438.078 236.723 438.078 235.801ZM440.902 235.555V235.801C440.902 236.379 440.953 236.918 441.055 237.418C441.164 237.918 441.332 238.359 441.559 238.742C441.785 239.117 442.078 239.414 442.438 239.633C442.805 239.844 443.242 239.949 443.75 239.949C444.391 239.949 444.918 239.809 445.332 239.527C445.746 239.246 446.07 238.867 446.305 238.391C446.547 237.906 446.711 237.367 446.797 236.773V234.652C446.75 234.191 446.652 233.762 446.504 233.363C446.363 232.965 446.172 232.617 445.93 232.32C445.688 232.016 445.387 231.781 445.027 231.617C444.676 231.445 444.258 231.359 443.773 231.359C443.258 231.359 442.82 231.469 442.461 231.688C442.102 231.906 441.805 232.207 441.57 232.59C441.344 232.973 441.176 233.418 441.066 233.926C440.957 234.434 440.902 234.977 440.902 235.555ZM463.906 229.32V231.383H456.758V229.32H463.906ZM458.82 226.215H461.645V238.496C461.645 238.887 461.699 239.188 461.809 239.398C461.926 239.602 462.086 239.738 462.289 239.809C462.492 239.879 462.73 239.914 463.004 239.914C463.199 239.914 463.387 239.902 463.566 239.879C463.746 239.855 463.891 239.832 464 239.809L464.012 241.965C463.777 242.035 463.504 242.098 463.191 242.152C462.887 242.207 462.535 242.234 462.137 242.234C461.488 242.234 460.914 242.121 460.414 241.895C459.914 241.66 459.523 241.281 459.242 240.758C458.961 240.234 458.82 239.539 458.82 238.672V226.215ZM468.875 224V242H466.062V224H468.875ZM468.383 235.191L467.469 235.18C467.477 234.305 467.598 233.496 467.832 232.754C468.074 232.012 468.41 231.367 468.84 230.82C469.277 230.266 469.801 229.84 470.41 229.543C471.02 229.238 471.695 229.086 472.438 229.086C473.062 229.086 473.625 229.172 474.125 229.344C474.633 229.516 475.07 229.793 475.438 230.176C475.805 230.551 476.082 231.043 476.27 231.652C476.465 232.254 476.562 232.988 476.562 233.855V242H473.727V233.832C473.727 233.223 473.637 232.738 473.457 232.379C473.285 232.02 473.031 231.762 472.695 231.605C472.359 231.441 471.949 231.359 471.465 231.359C470.957 231.359 470.508 231.461 470.117 231.664C469.734 231.867 469.414 232.145 469.156 232.496C468.898 232.848 468.703 233.254 468.57 233.715C468.445 234.176 468.383 234.668 468.383 235.191ZM485.012 242.234C484.074 242.234 483.227 242.082 482.469 241.777C481.719 241.465 481.078 241.031 480.547 240.477C480.023 239.922 479.621 239.27 479.34 238.52C479.059 237.77 478.918 236.961 478.918 236.094V235.625C478.918 234.633 479.062 233.734 479.352 232.93C479.641 232.125 480.043 231.438 480.559 230.867C481.074 230.289 481.684 229.848 482.387 229.543C483.09 229.238 483.852 229.086 484.672 229.086C485.578 229.086 486.371 229.238 487.051 229.543C487.73 229.848 488.293 230.277 488.738 230.832C489.191 231.379 489.527 232.031 489.746 232.789C489.973 233.547 490.086 234.383 490.086 235.297V236.504H480.289V234.477H487.297V234.254C487.281 233.746 487.18 233.27 486.992 232.824C486.812 232.379 486.535 232.02 486.16 231.746C485.785 231.473 485.285 231.336 484.66 231.336C484.191 231.336 483.773 231.438 483.406 231.641C483.047 231.836 482.746 232.121 482.504 232.496C482.262 232.871 482.074 233.324 481.941 233.855C481.816 234.379 481.754 234.969 481.754 235.625V236.094C481.754 236.648 481.828 237.164 481.977 237.641C482.133 238.109 482.359 238.52 482.656 238.871C482.953 239.223 483.312 239.5 483.734 239.703C484.156 239.898 484.637 239.996 485.176 239.996C485.855 239.996 486.461 239.859 486.992 239.586C487.523 239.312 487.984 238.926 488.375 238.426L489.863 239.867C489.59 240.266 489.234 240.648 488.797 241.016C488.359 241.375 487.824 241.668 487.191 241.895C486.566 242.121 485.84 242.234 485.012 242.234ZM503.504 242H499.859L499.883 239.668H503.504C504.559 239.668 505.441 239.438 506.152 238.977C506.871 238.516 507.41 237.855 507.77 236.996C508.137 236.137 508.32 235.113 508.32 233.926V233C508.32 232.078 508.215 231.262 508.004 230.551C507.801 229.84 507.496 229.242 507.09 228.758C506.691 228.273 506.199 227.906 505.613 227.656C505.035 227.406 504.367 227.281 503.609 227.281H499.789V224.938H503.609C504.742 224.938 505.777 225.129 506.715 225.512C507.652 225.887 508.461 226.43 509.141 227.141C509.828 227.852 510.355 228.703 510.723 229.695C511.09 230.688 511.273 231.797 511.273 233.023V233.926C511.273 235.152 511.09 236.262 510.723 237.254C510.355 238.246 509.828 239.098 509.141 239.809C508.453 240.512 507.633 241.055 506.68 241.438C505.734 241.812 504.676 242 503.504 242ZM501.488 224.938V242H498.547V224.938H501.488ZM516.781 231.734V242H513.957V229.32H516.652L516.781 231.734ZM520.66 229.238L520.637 231.863C520.465 231.832 520.277 231.809 520.074 231.793C519.879 231.777 519.684 231.77 519.488 231.77C519.004 231.77 518.578 231.84 518.211 231.98C517.844 232.113 517.535 232.309 517.285 232.566C517.043 232.816 516.855 233.121 516.723 233.48C516.59 233.84 516.512 234.242 516.488 234.688L515.844 234.734C515.844 233.938 515.922 233.199 516.078 232.52C516.234 231.84 516.469 231.242 516.781 230.727C517.102 230.211 517.5 229.809 517.977 229.52C518.461 229.23 519.02 229.086 519.652 229.086C519.824 229.086 520.008 229.102 520.203 229.133C520.406 229.164 520.559 229.199 520.66 229.238ZM525.453 229.32V242H522.617V229.32H525.453ZM522.43 225.992C522.43 225.562 522.57 225.207 522.852 224.926C523.141 224.637 523.539 224.492 524.047 224.492C524.547 224.492 524.941 224.637 525.23 224.926C525.52 225.207 525.664 225.562 525.664 225.992C525.664 226.414 525.52 226.766 525.23 227.047C524.941 227.328 524.547 227.469 524.047 227.469C523.539 227.469 523.141 227.328 522.852 227.047C522.57 226.766 522.43 226.414 522.43 225.992ZM532.672 239.762L535.777 229.32H538.707L534.301 242H532.473L532.672 239.762ZM530.293 229.32L533.457 239.809L533.609 242H531.781L527.352 229.32H530.293ZM545.879 242.234C544.941 242.234 544.094 242.082 543.336 241.777C542.586 241.465 541.945 241.031 541.414 240.477C540.891 239.922 540.488 239.27 540.207 238.52C539.926 237.77 539.785 236.961 539.785 236.094V235.625C539.785 234.633 539.93 233.734 540.219 232.93C540.508 232.125 540.91 231.438 541.426 230.867C541.941 230.289 542.551 229.848 543.254 229.543C543.957 229.238 544.719 229.086 545.539 229.086C546.445 229.086 547.238 229.238 547.918 229.543C548.598 229.848 549.16 230.277 549.605 230.832C550.059 231.379 550.395 232.031 550.613 232.789C550.84 233.547 550.953 234.383 550.953 235.297V236.504H541.156V234.477H548.164V234.254C548.148 233.746 548.047 233.27 547.859 232.824C547.68 232.379 547.402 232.02 547.027 231.746C546.652 231.473 546.152 231.336 545.527 231.336C545.059 231.336 544.641 231.438 544.273 231.641C543.914 231.836 543.613 232.121 543.371 232.496C543.129 232.871 542.941 233.324 542.809 233.855C542.684 234.379 542.621 234.969 542.621 235.625V236.094C542.621 236.648 542.695 237.164 542.844 237.641C543 238.109 543.227 238.52 543.523 238.871C543.82 239.223 544.18 239.5 544.602 239.703C545.023 239.898 545.504 239.996 546.043 239.996C546.723 239.996 547.328 239.859 547.859 239.586C548.391 239.312 548.852 238.926 549.242 238.426L550.73 239.867C550.457 240.266 550.102 240.648 549.664 241.016C549.227 241.375 548.691 241.668 548.059 241.895C547.434 242.121 546.707 242.234 545.879 242.234ZM555.992 231.734V242H553.168V229.32H555.863L555.992 231.734ZM559.871 229.238L559.848 231.863C559.676 231.832 559.488 231.809 559.285 231.793C559.09 231.777 558.895 231.77 558.699 231.77C558.215 231.77 557.789 231.84 557.422 231.98C557.055 232.113 556.746 232.309 556.496 232.566C556.254 232.816 556.066 233.121 555.934 233.48C555.801 233.84 555.723 234.242 555.699 234.688L555.055 234.734C555.055 233.938 555.133 233.199 555.289 232.52C555.445 231.84 555.68 231.242 555.992 230.727C556.312 230.211 556.711 229.809 557.188 229.52C557.672 229.23 558.23 229.086 558.863 229.086C559.035 229.086 559.219 229.102 559.414 229.133C559.617 229.164 559.77 229.199 559.871 229.238ZM574.766 239.457V233.41C574.766 232.957 574.684 232.566 574.52 232.238C574.355 231.91 574.105 231.656 573.77 231.477C573.441 231.297 573.027 231.207 572.527 231.207C572.066 231.207 571.668 231.285 571.332 231.441C570.996 231.598 570.734 231.809 570.547 232.074C570.359 232.34 570.266 232.641 570.266 232.977H567.453C567.453 232.477 567.574 231.992 567.816 231.523C568.059 231.055 568.41 230.637 568.871 230.27C569.332 229.902 569.883 229.613 570.523 229.402C571.164 229.191 571.883 229.086 572.68 229.086C573.633 229.086 574.477 229.246 575.211 229.566C575.953 229.887 576.535 230.371 576.957 231.02C577.387 231.66 577.602 232.465 577.602 233.434V239.07C577.602 239.648 577.641 240.168 577.719 240.629C577.805 241.082 577.926 241.477 578.082 241.812V242H575.188C575.055 241.695 574.949 241.309 574.871 240.84C574.801 240.363 574.766 239.902 574.766 239.457ZM575.176 234.289L575.199 236.035H573.172C572.648 236.035 572.188 236.086 571.789 236.188C571.391 236.281 571.059 236.422 570.793 236.609C570.527 236.797 570.328 237.023 570.195 237.289C570.062 237.555 569.996 237.855 569.996 238.191C569.996 238.527 570.074 238.836 570.23 239.117C570.387 239.391 570.613 239.605 570.91 239.762C571.215 239.918 571.582 239.996 572.012 239.996C572.59 239.996 573.094 239.879 573.523 239.645C573.961 239.402 574.305 239.109 574.555 238.766C574.805 238.414 574.938 238.082 574.953 237.77L575.867 239.023C575.773 239.344 575.613 239.688 575.387 240.055C575.16 240.422 574.863 240.773 574.496 241.109C574.137 241.438 573.703 241.707 573.195 241.918C572.695 242.129 572.117 242.234 571.461 242.234C570.633 242.234 569.895 242.07 569.246 241.742C568.598 241.406 568.09 240.957 567.723 240.395C567.355 239.824 567.172 239.18 567.172 238.461C567.172 237.789 567.297 237.195 567.547 236.68C567.805 236.156 568.18 235.719 568.672 235.367C569.172 235.016 569.781 234.75 570.5 234.57C571.219 234.383 572.039 234.289 572.961 234.289H575.176ZM583.391 231.758V246.875H580.566V229.32H583.168L583.391 231.758ZM591.652 235.543V235.789C591.652 236.711 591.543 237.566 591.324 238.355C591.113 239.137 590.797 239.82 590.375 240.406C589.961 240.984 589.449 241.434 588.84 241.754C588.23 242.074 587.527 242.234 586.73 242.234C585.941 242.234 585.25 242.09 584.656 241.801C584.07 241.504 583.574 241.086 583.168 240.547C582.762 240.008 582.434 239.375 582.184 238.648C581.941 237.914 581.77 237.109 581.668 236.234V235.285C581.77 234.355 581.941 233.512 582.184 232.754C582.434 231.996 582.762 231.344 583.168 230.797C583.574 230.25 584.07 229.828 584.656 229.531C585.242 229.234 585.926 229.086 586.707 229.086C587.504 229.086 588.211 229.242 588.828 229.555C589.445 229.859 589.965 230.297 590.387 230.867C590.809 231.43 591.125 232.109 591.336 232.906C591.547 233.695 591.652 234.574 591.652 235.543ZM588.828 235.789V235.543C588.828 234.957 588.773 234.414 588.664 233.914C588.555 233.406 588.383 232.961 588.148 232.578C587.914 232.195 587.613 231.898 587.246 231.688C586.887 231.469 586.453 231.359 585.945 231.359C585.445 231.359 585.016 231.445 584.656 231.617C584.297 231.781 583.996 232.012 583.754 232.309C583.512 232.605 583.324 232.953 583.191 233.352C583.059 233.742 582.965 234.168 582.91 234.629V236.902C583.004 237.465 583.164 237.98 583.391 238.449C583.617 238.918 583.938 239.293 584.352 239.574C584.773 239.848 585.312 239.984 585.969 239.984C586.477 239.984 586.91 239.875 587.27 239.656C587.629 239.438 587.922 239.137 588.148 238.754C588.383 238.363 588.555 237.914 588.664 237.406C588.773 236.898 588.828 236.359 588.828 235.789ZM596.891 231.758V246.875H594.066V229.32H596.668L596.891 231.758ZM605.152 235.543V235.789C605.152 236.711 605.043 237.566 604.824 238.355C604.613 239.137 604.297 239.82 603.875 240.406C603.461 240.984 602.949 241.434 602.34 241.754C601.73 242.074 601.027 242.234 600.23 242.234C599.441 242.234 598.75 242.09 598.156 241.801C597.57 241.504 597.074 241.086 596.668 240.547C596.262 240.008 595.934 239.375 595.684 238.648C595.441 237.914 595.27 237.109 595.168 236.234V235.285C595.27 234.355 595.441 233.512 595.684 232.754C595.934 231.996 596.262 231.344 596.668 230.797C597.074 230.25 597.57 229.828 598.156 229.531C598.742 229.234 599.426 229.086 600.207 229.086C601.004 229.086 601.711 229.242 602.328 229.555C602.945 229.859 603.465 230.297 603.887 230.867C604.309 231.43 604.625 232.109 604.836 232.906C605.047 233.695 605.152 234.574 605.152 235.543ZM602.328 235.789V235.543C602.328 234.957 602.273 234.414 602.164 233.914C602.055 233.406 601.883 232.961 601.648 232.578C601.414 232.195 601.113 231.898 600.746 231.688C600.387 231.469 599.953 231.359 599.445 231.359C598.945 231.359 598.516 231.445 598.156 231.617C597.797 231.781 597.496 232.012 597.254 232.309C597.012 232.605 596.824 232.953 596.691 233.352C596.559 233.742 596.465 234.168 596.41 234.629V236.902C596.504 237.465 596.664 237.98 596.891 238.449C597.117 238.918 597.438 239.293 597.852 239.574C598.273 239.848 598.812 239.984 599.469 239.984C599.977 239.984 600.41 239.875 600.77 239.656C601.129 239.438 601.422 239.137 601.648 238.754C601.883 238.363 602.055 237.914 602.164 237.406C602.273 236.898 602.328 236.359 602.328 235.789Z" fill="black"/>
<path d="M664.268 234.707C664.659 234.317 664.659 233.683 664.268 233.293L657.904 226.929C657.514 226.538 656.88 226.538 656.49 226.929C656.099 227.319 656.099 227.953 656.49 228.343L662.147 234L656.49 239.657C656.099 240.047 656.099 240.681 656.49 241.071C656.88 241.462 657.514 241.462 657.904 241.071L664.268 234.707ZM647 235H663.561V233H647V235Z" fill="black"/>
<path d="M215.56 200.453H221.663V224.208C221.663 226.91 221.077 229.172 219.905 230.995C218.733 232.818 217.138 234.193 215.12 235.121C213.118 236.033 210.88 236.488 208.406 236.488C205.851 236.488 203.572 236.033 201.57 235.121C199.568 234.193 197.99 232.818 196.834 230.995C195.695 229.172 195.125 226.91 195.125 224.208V200.453H201.229V224.208C201.229 225.917 201.521 227.325 202.107 228.432C202.693 229.522 203.523 230.328 204.598 230.849C205.672 231.369 206.941 231.63 208.406 231.63C209.871 231.63 211.132 231.369 212.19 230.849C213.265 230.328 214.095 229.522 214.681 228.432C215.267 227.325 215.56 225.917 215.56 224.208V200.453ZM227.767 198.5H233.65V230.36L233.089 236H227.767V198.5ZM250.887 222.548V223.061C250.887 225.014 250.667 226.812 250.228 228.456C249.804 230.084 249.153 231.5 248.274 232.704C247.412 233.909 246.338 234.844 245.052 235.512C243.782 236.163 242.309 236.488 240.633 236.488C238.989 236.488 237.557 236.179 236.336 235.561C235.115 234.942 234.09 234.063 233.26 232.924C232.446 231.785 231.787 230.425 231.282 228.847C230.778 227.268 230.42 225.526 230.208 223.622V221.986C230.42 220.066 230.778 218.324 231.282 216.762C231.787 215.183 232.446 213.824 233.26 212.685C234.09 211.529 235.107 210.642 236.312 210.023C237.532 209.405 238.956 209.096 240.584 209.096C242.277 209.096 243.766 209.421 245.052 210.072C246.354 210.723 247.436 211.651 248.299 212.855C249.161 214.044 249.804 215.46 250.228 217.104C250.667 218.747 250.887 220.562 250.887 222.548ZM245.003 223.061V222.548C245.003 221.36 244.905 220.245 244.71 219.203C244.515 218.145 244.189 217.217 243.733 216.42C243.294 215.622 242.692 214.996 241.927 214.54C241.178 214.068 240.242 213.832 239.119 213.832C238.077 213.832 237.182 214.011 236.434 214.369C235.685 214.727 235.058 215.215 234.554 215.834C234.049 216.452 233.65 217.169 233.357 217.982C233.081 218.796 232.894 219.675 232.796 220.619V225.038C232.942 226.259 233.252 227.382 233.724 228.407C234.212 229.416 234.896 230.23 235.774 230.849C236.653 231.451 237.785 231.752 239.168 231.752C240.258 231.752 241.178 231.532 241.927 231.093C242.675 230.653 243.27 230.043 243.709 229.262C244.165 228.464 244.49 227.536 244.686 226.479C244.897 225.421 245.003 224.281 245.003 223.061ZM267.513 236.488C265.56 236.488 263.794 236.171 262.215 235.536C260.652 234.885 259.318 233.982 258.211 232.826C257.12 231.671 256.282 230.312 255.696 228.749C255.11 227.187 254.817 225.502 254.817 223.695V222.719C254.817 220.652 255.118 218.78 255.721 217.104C256.323 215.427 257.161 213.995 258.235 212.807C259.31 211.602 260.579 210.683 262.044 210.048C263.509 209.413 265.096 209.096 266.805 209.096C268.693 209.096 270.345 209.413 271.761 210.048C273.177 210.683 274.349 211.578 275.276 212.733C276.22 213.873 276.92 215.232 277.376 216.811C277.848 218.389 278.084 220.131 278.084 222.035V224.55H257.674V220.326H272.273V219.862C272.241 218.804 272.029 217.812 271.639 216.884C271.264 215.956 270.687 215.207 269.905 214.638C269.124 214.068 268.082 213.783 266.78 213.783C265.804 213.783 264.933 213.995 264.168 214.418C263.419 214.825 262.793 215.419 262.288 216.2C261.784 216.981 261.393 217.925 261.116 219.032C260.856 220.123 260.726 221.352 260.726 222.719V223.695C260.726 224.851 260.88 225.925 261.189 226.918C261.515 227.895 261.987 228.749 262.605 229.481C263.224 230.214 263.973 230.792 264.852 231.215C265.73 231.622 266.731 231.825 267.854 231.825C269.271 231.825 270.532 231.54 271.639 230.971C272.745 230.401 273.706 229.595 274.52 228.554L277.62 231.557C277.05 232.387 276.31 233.184 275.398 233.949C274.487 234.698 273.372 235.308 272.054 235.78C270.752 236.252 269.238 236.488 267.513 236.488ZM288.582 214.613V236H282.698V209.584H288.313L288.582 214.613ZM296.663 209.413L296.614 214.882C296.256 214.817 295.866 214.768 295.442 214.735C295.035 214.703 294.629 214.687 294.222 214.687C293.213 214.687 292.326 214.833 291.561 215.126C290.796 215.403 290.153 215.81 289.632 216.347C289.127 216.868 288.737 217.502 288.46 218.251C288.183 219 288.021 219.838 287.972 220.766L286.629 220.863C286.629 219.203 286.792 217.665 287.117 216.249C287.443 214.833 287.931 213.588 288.582 212.514C289.249 211.439 290.079 210.601 291.072 209.999C292.081 209.397 293.245 209.096 294.563 209.096C294.922 209.096 295.304 209.128 295.711 209.193C296.134 209.258 296.451 209.332 296.663 209.413Z" fill="white"/>
<path d="M236.061 278.061C236.646 277.475 236.646 276.525 236.061 275.939L226.515 266.393C225.929 265.808 224.979 265.808 224.393 266.393C223.808 266.979 223.808 267.929 224.393 268.515L232.879 277L224.393 285.485C223.808 286.071 223.808 287.021 224.393 287.607C224.979 288.192 225.929 288.192 226.515 287.607L236.061 278.061ZM206 278.5H235V275.5H206V278.5Z" fill="#F6F6F6"/>
<rect x="740.5" y="137.5" width="556" height="194" stroke="black" stroke-opacity="0.3"/>
<rect x="766" y="160" width="150" height="150" fill="black"/>
<path d="M946.691 243H943.047L943.07 240.668H946.691C947.746 240.668 948.629 240.438 949.34 239.977C950.059 239.516 950.598 238.855 950.957 237.996C951.324 237.137 951.508 236.113 951.508 234.926V234C951.508 233.078 951.402 232.262 951.191 231.551C950.988 230.84 950.684 230.242 950.277 229.758C949.879 229.273 949.387 228.906 948.801 228.656C948.223 228.406 947.555 228.281 946.797 228.281H942.977V225.938H946.797C947.93 225.938 948.965 226.129 949.902 226.512C950.84 226.887 951.648 227.43 952.328 228.141C953.016 228.852 953.543 229.703 953.91 230.695C954.277 231.688 954.461 232.797 954.461 234.023V234.926C954.461 236.152 954.277 237.262 953.91 238.254C953.543 239.246 953.016 240.098 952.328 240.809C951.641 241.512 950.82 242.055 949.867 242.438C948.922 242.812 947.863 243 946.691 243ZM944.676 225.938V243H941.734V225.938H944.676ZM956.594 236.801V236.531C956.594 235.617 956.727 234.77 956.992 233.988C957.258 233.199 957.641 232.516 958.141 231.938C958.648 231.352 959.266 230.898 959.992 230.578C960.727 230.25 961.555 230.086 962.477 230.086C963.406 230.086 964.234 230.25 964.961 230.578C965.695 230.898 966.316 231.352 966.824 231.938C967.332 232.516 967.719 233.199 967.984 233.988C968.25 234.77 968.383 235.617 968.383 236.531V236.801C968.383 237.715 968.25 238.562 967.984 239.344C967.719 240.125 967.332 240.809 966.824 241.395C966.316 241.973 965.699 242.426 964.973 242.754C964.246 243.074 963.422 243.234 962.5 243.234C961.57 243.234 960.738 243.074 960.004 242.754C959.277 242.426 958.66 241.973 958.152 241.395C957.645 240.809 957.258 240.125 956.992 239.344C956.727 238.562 956.594 237.715 956.594 236.801ZM959.418 236.531V236.801C959.418 237.371 959.477 237.91 959.594 238.418C959.711 238.926 959.895 239.371 960.145 239.754C960.395 240.137 960.715 240.438 961.105 240.656C961.496 240.875 961.961 240.984 962.5 240.984C963.023 240.984 963.477 240.875 963.859 240.656C964.25 240.438 964.57 240.137 964.82 239.754C965.07 239.371 965.254 238.926 965.371 238.418C965.496 237.91 965.559 237.371 965.559 236.801V236.531C965.559 235.969 965.496 235.438 965.371 234.938C965.254 234.43 965.066 233.98 964.809 233.59C964.559 233.199 964.238 232.895 963.848 232.676C963.465 232.449 963.008 232.336 962.477 232.336C961.945 232.336 961.484 232.449 961.094 232.676C960.711 232.895 960.395 233.199 960.145 233.59C959.895 233.98 959.711 234.43 959.594 234.938C959.477 235.438 959.418 235.969 959.418 236.531ZM974.195 240.188L977.125 230.32H978.93L978.438 233.273L975.484 243H973.867L974.195 240.188ZM972.473 230.32L974.758 240.234L974.945 243H973.141L969.707 230.32H972.473ZM981.672 240.117L983.887 230.32H986.641L983.219 243H981.414L981.672 240.117ZM979.234 230.32L982.129 240.07L982.492 243H980.875L977.887 233.262L977.395 230.32H979.234ZM991.363 233.027V243H988.539V230.32H991.199L991.363 233.027ZM990.859 236.191L989.945 236.18C989.953 235.281 990.078 234.457 990.32 233.707C990.57 232.957 990.914 232.312 991.352 231.773C991.797 231.234 992.328 230.82 992.945 230.531C993.562 230.234 994.25 230.086 995.008 230.086C995.617 230.086 996.168 230.172 996.66 230.344C997.16 230.508 997.586 230.777 997.938 231.152C998.297 231.527 998.57 232.016 998.758 232.617C998.945 233.211 999.039 233.941 999.039 234.809V243H996.203V234.797C996.203 234.188 996.113 233.707 995.934 233.355C995.762 232.996 995.508 232.742 995.172 232.594C994.844 232.438 994.434 232.359 993.941 232.359C993.457 232.359 993.023 232.461 992.641 232.664C992.258 232.867 991.934 233.145 991.668 233.496C991.41 233.848 991.211 234.254 991.07 234.715C990.93 235.176 990.859 235.668 990.859 236.191ZM1004.95 225V243H1002.11V225H1004.95ZM1007.5 236.801V236.531C1007.5 235.617 1007.63 234.77 1007.9 233.988C1008.16 233.199 1008.55 232.516 1009.05 231.938C1009.55 231.352 1010.17 230.898 1010.9 230.578C1011.63 230.25 1012.46 230.086 1013.38 230.086C1014.31 230.086 1015.14 230.25 1015.87 230.578C1016.6 230.898 1017.22 231.352 1017.73 231.938C1018.24 232.516 1018.62 233.199 1018.89 233.988C1019.16 234.77 1019.29 235.617 1019.29 236.531V236.801C1019.29 237.715 1019.16 238.562 1018.89 239.344C1018.62 240.125 1018.24 240.809 1017.73 241.395C1017.22 241.973 1016.61 242.426 1015.88 242.754C1015.15 243.074 1014.33 243.234 1013.41 243.234C1012.48 243.234 1011.64 243.074 1010.91 242.754C1010.18 242.426 1009.57 241.973 1009.06 241.395C1008.55 240.809 1008.16 240.125 1007.9 239.344C1007.63 238.562 1007.5 237.715 1007.5 236.801ZM1010.32 236.531V236.801C1010.32 237.371 1010.38 237.91 1010.5 238.418C1010.62 238.926 1010.8 239.371 1011.05 239.754C1011.3 240.137 1011.62 240.438 1012.01 240.656C1012.4 240.875 1012.87 240.984 1013.41 240.984C1013.93 240.984 1014.38 240.875 1014.77 240.656C1015.16 240.438 1015.48 240.137 1015.73 239.754C1015.98 239.371 1016.16 238.926 1016.28 238.418C1016.4 237.91 1016.46 237.371 1016.46 236.801V236.531C1016.46 235.969 1016.4 235.438 1016.28 234.938C1016.16 234.43 1015.97 233.98 1015.71 233.59C1015.46 233.199 1015.14 232.895 1014.75 232.676C1014.37 232.449 1013.91 232.336 1013.38 232.336C1012.85 232.336 1012.39 232.449 1012 232.676C1011.62 232.895 1011.3 233.199 1011.05 233.59C1010.8 233.98 1010.62 234.43 1010.5 234.938C1010.38 235.438 1010.32 235.969 1010.32 236.531ZM1028.8 240.457V234.41C1028.8 233.957 1028.72 233.566 1028.56 233.238C1028.39 232.91 1028.14 232.656 1027.81 232.477C1027.48 232.297 1027.07 232.207 1026.57 232.207C1026.11 232.207 1025.71 232.285 1025.37 232.441C1025.04 232.598 1024.77 232.809 1024.59 233.074C1024.4 233.34 1024.3 233.641 1024.3 233.977H1021.49C1021.49 233.477 1021.61 232.992 1021.86 232.523C1022.1 232.055 1022.45 231.637 1022.91 231.27C1023.37 230.902 1023.92 230.613 1024.56 230.402C1025.2 230.191 1025.92 230.086 1026.72 230.086C1027.67 230.086 1028.52 230.246 1029.25 230.566C1029.99 230.887 1030.57 231.371 1031 232.02C1031.43 232.66 1031.64 233.465 1031.64 234.434V240.07C1031.64 240.648 1031.68 241.168 1031.76 241.629C1031.84 242.082 1031.96 242.477 1032.12 242.812V243H1029.23C1029.09 242.695 1028.99 242.309 1028.91 241.84C1028.84 241.363 1028.8 240.902 1028.8 240.457ZM1029.21 235.289L1029.24 237.035H1027.21C1026.69 237.035 1026.23 237.086 1025.83 237.188C1025.43 237.281 1025.1 237.422 1024.83 237.609C1024.57 237.797 1024.37 238.023 1024.23 238.289C1024.1 238.555 1024.04 238.855 1024.04 239.191C1024.04 239.527 1024.11 239.836 1024.27 240.117C1024.43 240.391 1024.65 240.605 1024.95 240.762C1025.25 240.918 1025.62 240.996 1026.05 240.996C1026.63 240.996 1027.13 240.879 1027.56 240.645C1028 240.402 1028.34 240.109 1028.59 239.766C1028.84 239.414 1028.98 239.082 1028.99 238.77L1029.91 240.023C1029.81 240.344 1029.65 240.688 1029.43 241.055C1029.2 241.422 1028.9 241.773 1028.54 242.109C1028.18 242.438 1027.74 242.707 1027.23 242.918C1026.73 243.129 1026.16 243.234 1025.5 243.234C1024.67 243.234 1023.93 243.07 1023.29 242.742C1022.64 242.406 1022.13 241.957 1021.76 241.395C1021.39 240.824 1021.21 240.18 1021.21 239.461C1021.21 238.789 1021.34 238.195 1021.59 237.68C1021.84 237.156 1022.22 236.719 1022.71 236.367C1023.21 236.016 1023.82 235.75 1024.54 235.57C1025.26 235.383 1026.08 235.289 1027 235.289H1029.21ZM1042.33 240.375V225H1045.16V243H1042.6L1042.33 240.375ZM1034.08 236.801V236.555C1034.08 235.594 1034.19 234.719 1034.42 233.93C1034.64 233.133 1034.97 232.449 1035.4 231.879C1035.83 231.301 1036.36 230.859 1036.97 230.555C1037.59 230.242 1038.29 230.086 1039.06 230.086C1039.82 230.086 1040.5 230.234 1041.07 230.531C1041.65 230.828 1042.14 231.254 1042.55 231.809C1042.96 232.355 1043.28 233.012 1043.52 233.777C1043.77 234.535 1043.94 235.379 1044.04 236.309V237.094C1043.94 238 1043.77 238.828 1043.52 239.578C1043.28 240.328 1042.96 240.977 1042.55 241.523C1042.14 242.07 1041.65 242.492 1041.06 242.789C1040.48 243.086 1039.81 243.234 1039.04 243.234C1038.27 243.234 1037.58 243.074 1036.96 242.754C1036.35 242.434 1035.83 241.984 1035.4 241.406C1034.97 240.828 1034.64 240.148 1034.42 239.367C1034.19 238.578 1034.08 237.723 1034.08 236.801ZM1036.9 236.555V236.801C1036.9 237.379 1036.95 237.918 1037.05 238.418C1037.16 238.918 1037.33 239.359 1037.56 239.742C1037.79 240.117 1038.08 240.414 1038.44 240.633C1038.8 240.844 1039.24 240.949 1039.75 240.949C1040.39 240.949 1040.92 240.809 1041.33 240.527C1041.75 240.246 1042.07 239.867 1042.3 239.391C1042.55 238.906 1042.71 238.367 1042.8 237.773V235.652C1042.75 235.191 1042.65 234.762 1042.5 234.363C1042.36 233.965 1042.17 233.617 1041.93 233.32C1041.69 233.016 1041.39 232.781 1041.03 232.617C1040.68 232.445 1040.26 232.359 1039.77 232.359C1039.26 232.359 1038.82 232.469 1038.46 232.688C1038.1 232.906 1037.8 233.207 1037.57 233.59C1037.34 233.973 1037.18 234.418 1037.07 234.926C1036.96 235.434 1036.9 235.977 1036.9 236.555ZM1059.91 230.32V232.383H1052.76V230.32H1059.91ZM1054.82 227.215H1057.64V239.496C1057.64 239.887 1057.7 240.188 1057.81 240.398C1057.93 240.602 1058.09 240.738 1058.29 240.809C1058.49 240.879 1058.73 240.914 1059 240.914C1059.2 240.914 1059.39 240.902 1059.57 240.879C1059.75 240.855 1059.89 240.832 1060 240.809L1060.01 242.965C1059.78 243.035 1059.5 243.098 1059.19 243.152C1058.89 243.207 1058.54 243.234 1058.14 243.234C1057.49 243.234 1056.91 243.121 1056.41 242.895C1055.91 242.66 1055.52 242.281 1055.24 241.758C1054.96 241.234 1054.82 240.539 1054.82 239.672V227.215ZM1064.88 225V243H1062.06V225H1064.88ZM1064.38 236.191L1063.47 236.18C1063.48 235.305 1063.6 234.496 1063.83 233.754C1064.07 233.012 1064.41 232.367 1064.84 231.82C1065.28 231.266 1065.8 230.84 1066.41 230.543C1067.02 230.238 1067.7 230.086 1068.44 230.086C1069.06 230.086 1069.62 230.172 1070.12 230.344C1070.63 230.516 1071.07 230.793 1071.44 231.176C1071.8 231.551 1072.08 232.043 1072.27 232.652C1072.46 233.254 1072.56 233.988 1072.56 234.855V243H1069.73V234.832C1069.73 234.223 1069.64 233.738 1069.46 233.379C1069.29 233.02 1069.03 232.762 1068.7 232.605C1068.36 232.441 1067.95 232.359 1067.46 232.359C1066.96 232.359 1066.51 232.461 1066.12 232.664C1065.73 232.867 1065.41 233.145 1065.16 233.496C1064.9 233.848 1064.7 234.254 1064.57 234.715C1064.45 235.176 1064.38 235.668 1064.38 236.191ZM1081.01 243.234C1080.07 243.234 1079.23 243.082 1078.47 242.777C1077.72 242.465 1077.08 242.031 1076.55 241.477C1076.02 240.922 1075.62 240.27 1075.34 239.52C1075.06 238.77 1074.92 237.961 1074.92 237.094V236.625C1074.92 235.633 1075.06 234.734 1075.35 233.93C1075.64 233.125 1076.04 232.438 1076.56 231.867C1077.07 231.289 1077.68 230.848 1078.39 230.543C1079.09 230.238 1079.85 230.086 1080.67 230.086C1081.58 230.086 1082.37 230.238 1083.05 230.543C1083.73 230.848 1084.29 231.277 1084.74 231.832C1085.19 232.379 1085.53 233.031 1085.75 233.789C1085.97 234.547 1086.09 235.383 1086.09 236.297V237.504H1076.29V235.477H1083.3V235.254C1083.28 234.746 1083.18 234.27 1082.99 233.824C1082.81 233.379 1082.54 233.02 1082.16 232.746C1081.79 232.473 1081.29 232.336 1080.66 232.336C1080.19 232.336 1079.77 232.438 1079.41 232.641C1079.05 232.836 1078.75 233.121 1078.5 233.496C1078.26 233.871 1078.07 234.324 1077.94 234.855C1077.82 235.379 1077.75 235.969 1077.75 236.625V237.094C1077.75 237.648 1077.83 238.164 1077.98 238.641C1078.13 239.109 1078.36 239.52 1078.66 239.871C1078.95 240.223 1079.31 240.5 1079.73 240.703C1080.16 240.898 1080.64 240.996 1081.18 240.996C1081.86 240.996 1082.46 240.859 1082.99 240.586C1083.52 240.312 1083.98 239.926 1084.38 239.426L1085.86 240.867C1085.59 241.266 1085.23 241.648 1084.8 242.016C1084.36 242.375 1083.82 242.668 1083.19 242.895C1082.57 243.121 1081.84 243.234 1081.01 243.234ZM1099.5 243H1095.86L1095.88 240.668H1099.5C1100.56 240.668 1101.44 240.438 1102.15 239.977C1102.87 239.516 1103.41 238.855 1103.77 237.996C1104.14 237.137 1104.32 236.113 1104.32 234.926V234C1104.32 233.078 1104.21 232.262 1104 231.551C1103.8 230.84 1103.5 230.242 1103.09 229.758C1102.69 229.273 1102.2 228.906 1101.61 228.656C1101.04 228.406 1100.37 228.281 1099.61 228.281H1095.79V225.938H1099.61C1100.74 225.938 1101.78 226.129 1102.71 226.512C1103.65 226.887 1104.46 227.43 1105.14 228.141C1105.83 228.852 1106.36 229.703 1106.72 230.695C1107.09 231.688 1107.27 232.797 1107.27 234.023V234.926C1107.27 236.152 1107.09 237.262 1106.72 238.254C1106.36 239.246 1105.83 240.098 1105.14 240.809C1104.45 241.512 1103.63 242.055 1102.68 242.438C1101.73 242.812 1100.68 243 1099.5 243ZM1097.49 225.938V243H1094.55V225.938H1097.49ZM1112.78 232.734V243H1109.96V230.32H1112.65L1112.78 232.734ZM1116.66 230.238L1116.64 232.863C1116.46 232.832 1116.28 232.809 1116.07 232.793C1115.88 232.777 1115.68 232.77 1115.49 232.77C1115 232.77 1114.58 232.84 1114.21 232.98C1113.84 233.113 1113.54 233.309 1113.29 233.566C1113.04 233.816 1112.86 234.121 1112.72 234.48C1112.59 234.84 1112.51 235.242 1112.49 235.688L1111.84 235.734C1111.84 234.938 1111.92 234.199 1112.08 233.52C1112.23 232.84 1112.47 232.242 1112.78 231.727C1113.1 231.211 1113.5 230.809 1113.98 230.52C1114.46 230.23 1115.02 230.086 1115.65 230.086C1115.82 230.086 1116.01 230.102 1116.2 230.133C1116.41 230.164 1116.56 230.199 1116.66 230.238ZM1121.45 230.32V243H1118.62V230.32H1121.45ZM1118.43 226.992C1118.43 226.562 1118.57 226.207 1118.85 225.926C1119.14 225.637 1119.54 225.492 1120.05 225.492C1120.55 225.492 1120.94 225.637 1121.23 225.926C1121.52 226.207 1121.66 226.562 1121.66 226.992C1121.66 227.414 1121.52 227.766 1121.23 228.047C1120.94 228.328 1120.55 228.469 1120.05 228.469C1119.54 228.469 1119.14 228.328 1118.85 228.047C1118.57 227.766 1118.43 227.414 1118.43 226.992ZM1128.67 240.762L1131.78 230.32H1134.71L1130.3 243H1128.47L1128.67 240.762ZM1126.29 230.32L1129.46 240.809L1129.61 243H1127.78L1123.35 230.32H1126.29ZM1141.88 243.234C1140.94 243.234 1140.09 243.082 1139.34 242.777C1138.59 242.465 1137.95 242.031 1137.41 241.477C1136.89 240.922 1136.49 240.27 1136.21 239.52C1135.93 238.77 1135.79 237.961 1135.79 237.094V236.625C1135.79 235.633 1135.93 234.734 1136.22 233.93C1136.51 233.125 1136.91 232.438 1137.43 231.867C1137.94 231.289 1138.55 230.848 1139.25 230.543C1139.96 230.238 1140.72 230.086 1141.54 230.086C1142.45 230.086 1143.24 230.238 1143.92 230.543C1144.6 230.848 1145.16 231.277 1145.61 231.832C1146.06 232.379 1146.39 233.031 1146.61 233.789C1146.84 234.547 1146.95 235.383 1146.95 236.297V237.504H1137.16V235.477H1144.16V235.254C1144.15 234.746 1144.05 234.27 1143.86 233.824C1143.68 233.379 1143.4 233.02 1143.03 232.746C1142.65 232.473 1142.15 232.336 1141.53 232.336C1141.06 232.336 1140.64 232.438 1140.27 232.641C1139.91 232.836 1139.61 233.121 1139.37 233.496C1139.13 233.871 1138.94 234.324 1138.81 234.855C1138.68 235.379 1138.62 235.969 1138.62 236.625V237.094C1138.62 237.648 1138.7 238.164 1138.84 238.641C1139 239.109 1139.23 239.52 1139.52 239.871C1139.82 240.223 1140.18 240.5 1140.6 240.703C1141.02 240.898 1141.5 240.996 1142.04 240.996C1142.72 240.996 1143.33 240.859 1143.86 240.586C1144.39 240.312 1144.85 239.926 1145.24 239.426L1146.73 240.867C1146.46 241.266 1146.1 241.648 1145.66 242.016C1145.23 242.375 1144.69 242.668 1144.06 242.895C1143.43 243.121 1142.71 243.234 1141.88 243.234ZM1151.99 232.734V243H1149.17V230.32H1151.86L1151.99 232.734ZM1155.87 230.238L1155.85 232.863C1155.68 232.832 1155.49 232.809 1155.29 232.793C1155.09 232.777 1154.89 232.77 1154.7 232.77C1154.21 232.77 1153.79 232.84 1153.42 232.98C1153.05 233.113 1152.75 233.309 1152.5 233.566C1152.25 233.816 1152.07 234.121 1151.93 234.48C1151.8 234.84 1151.72 235.242 1151.7 235.688L1151.05 235.734C1151.05 234.938 1151.13 234.199 1151.29 233.52C1151.45 232.84 1151.68 232.242 1151.99 231.727C1152.31 231.211 1152.71 230.809 1153.19 230.52C1153.67 230.23 1154.23 230.086 1154.86 230.086C1155.04 230.086 1155.22 230.102 1155.41 230.133C1155.62 230.164 1155.77 230.199 1155.87 230.238ZM1170.77 240.457V234.41C1170.77 233.957 1170.68 233.566 1170.52 233.238C1170.36 232.91 1170.11 232.656 1169.77 232.477C1169.44 232.297 1169.03 232.207 1168.53 232.207C1168.07 232.207 1167.67 232.285 1167.33 232.441C1167 232.598 1166.73 232.809 1166.55 233.074C1166.36 233.34 1166.27 233.641 1166.27 233.977H1163.45C1163.45 233.477 1163.57 232.992 1163.82 232.523C1164.06 232.055 1164.41 231.637 1164.87 231.27C1165.33 230.902 1165.88 230.613 1166.52 230.402C1167.16 230.191 1167.88 230.086 1168.68 230.086C1169.63 230.086 1170.48 230.246 1171.21 230.566C1171.95 230.887 1172.54 231.371 1172.96 232.02C1173.39 232.66 1173.6 233.465 1173.6 234.434V240.07C1173.6 240.648 1173.64 241.168 1173.72 241.629C1173.8 242.082 1173.93 242.477 1174.08 242.812V243H1171.19C1171.05 242.695 1170.95 242.309 1170.87 241.84C1170.8 241.363 1170.77 240.902 1170.77 240.457ZM1171.18 235.289L1171.2 237.035H1169.17C1168.65 237.035 1168.19 237.086 1167.79 237.188C1167.39 237.281 1167.06 237.422 1166.79 237.609C1166.53 237.797 1166.33 238.023 1166.2 238.289C1166.06 238.555 1166 238.855 1166 239.191C1166 239.527 1166.07 239.836 1166.23 240.117C1166.39 240.391 1166.61 240.605 1166.91 240.762C1167.21 240.918 1167.58 240.996 1168.01 240.996C1168.59 240.996 1169.09 240.879 1169.52 240.645C1169.96 240.402 1170.3 240.109 1170.55 239.766C1170.8 239.414 1170.94 239.082 1170.95 238.77L1171.87 240.023C1171.77 240.344 1171.61 240.688 1171.39 241.055C1171.16 241.422 1170.86 241.773 1170.5 242.109C1170.14 242.438 1169.7 242.707 1169.2 242.918C1168.7 243.129 1168.12 243.234 1167.46 243.234C1166.63 243.234 1165.89 243.07 1165.25 242.742C1164.6 242.406 1164.09 241.957 1163.72 241.395C1163.36 240.824 1163.17 240.18 1163.17 239.461C1163.17 238.789 1163.3 238.195 1163.55 237.68C1163.8 237.156 1164.18 236.719 1164.67 236.367C1165.17 236.016 1165.78 235.75 1166.5 235.57C1167.22 235.383 1168.04 235.289 1168.96 235.289H1171.18ZM1179.39 232.758V247.875H1176.57V230.32H1179.17L1179.39 232.758ZM1187.65 236.543V236.789C1187.65 237.711 1187.54 238.566 1187.32 239.355C1187.11 240.137 1186.8 240.82 1186.38 241.406C1185.96 241.984 1185.45 242.434 1184.84 242.754C1184.23 243.074 1183.53 243.234 1182.73 243.234C1181.94 243.234 1181.25 243.09 1180.66 242.801C1180.07 242.504 1179.57 242.086 1179.17 241.547C1178.76 241.008 1178.43 240.375 1178.18 239.648C1177.94 238.914 1177.77 238.109 1177.67 237.234V236.285C1177.77 235.355 1177.94 234.512 1178.18 233.754C1178.43 232.996 1178.76 232.344 1179.17 231.797C1179.57 231.25 1180.07 230.828 1180.66 230.531C1181.24 230.234 1181.93 230.086 1182.71 230.086C1183.5 230.086 1184.21 230.242 1184.83 230.555C1185.45 230.859 1185.96 231.297 1186.39 231.867C1186.81 232.43 1187.12 233.109 1187.34 233.906C1187.55 234.695 1187.65 235.574 1187.65 236.543ZM1184.83 236.789V236.543C1184.83 235.957 1184.77 235.414 1184.66 234.914C1184.55 234.406 1184.38 233.961 1184.15 233.578C1183.91 233.195 1183.61 232.898 1183.25 232.688C1182.89 232.469 1182.45 232.359 1181.95 232.359C1181.45 232.359 1181.02 232.445 1180.66 232.617C1180.3 232.781 1180 233.012 1179.75 233.309C1179.51 233.605 1179.32 233.953 1179.19 234.352C1179.06 234.742 1178.96 235.168 1178.91 235.629V237.902C1179 238.465 1179.16 238.98 1179.39 239.449C1179.62 239.918 1179.94 240.293 1180.35 240.574C1180.77 240.848 1181.31 240.984 1181.97 240.984C1182.48 240.984 1182.91 240.875 1183.27 240.656C1183.63 240.438 1183.92 240.137 1184.15 239.754C1184.38 239.363 1184.55 238.914 1184.66 238.406C1184.77 237.898 1184.83 237.359 1184.83 236.789ZM1192.89 232.758V247.875H1190.07V230.32H1192.67L1192.89 232.758ZM1201.15 236.543V236.789C1201.15 237.711 1201.04 238.566 1200.82 239.355C1200.61 240.137 1200.3 240.82 1199.88 241.406C1199.46 241.984 1198.95 242.434 1198.34 242.754C1197.73 243.074 1197.03 243.234 1196.23 243.234C1195.44 243.234 1194.75 243.09 1194.16 242.801C1193.57 242.504 1193.07 242.086 1192.67 241.547C1192.26 241.008 1191.93 240.375 1191.68 239.648C1191.44 238.914 1191.27 238.109 1191.17 237.234V236.285C1191.27 235.355 1191.44 234.512 1191.68 233.754C1191.93 232.996 1192.26 232.344 1192.67 231.797C1193.07 231.25 1193.57 230.828 1194.16 230.531C1194.74 230.234 1195.43 230.086 1196.21 230.086C1197 230.086 1197.71 230.242 1198.33 230.555C1198.95 230.859 1199.46 231.297 1199.89 231.867C1200.31 232.43 1200.62 233.109 1200.84 233.906C1201.05 234.695 1201.15 235.574 1201.15 236.543ZM1198.33 236.789V236.543C1198.33 235.957 1198.27 235.414 1198.16 234.914C1198.05 234.406 1197.88 233.961 1197.65 233.578C1197.41 233.195 1197.11 232.898 1196.75 232.688C1196.39 232.469 1195.95 232.359 1195.45 232.359C1194.95 232.359 1194.52 232.445 1194.16 232.617C1193.8 232.781 1193.5 233.012 1193.25 233.309C1193.01 233.605 1192.82 233.953 1192.69 234.352C1192.56 234.742 1192.46 235.168 1192.41 235.629V237.902C1192.5 238.465 1192.66 238.98 1192.89 239.449C1193.12 239.918 1193.44 240.293 1193.85 240.574C1194.27 240.848 1194.81 240.984 1195.47 240.984C1195.98 240.984 1196.41 240.875 1196.77 240.656C1197.13 240.438 1197.42 240.137 1197.65 239.754C1197.88 239.363 1198.05 238.914 1198.16 238.406C1198.27 237.898 1198.33 237.359 1198.33 236.789Z" fill="black"/>
<path d="M1260.27 235.707C1260.66 235.317 1260.66 234.683 1260.27 234.293L1253.9 227.929C1253.51 227.538 1252.88 227.538 1252.49 227.929C1252.1 228.319 1252.1 228.953 1252.49 229.343L1258.15 235L1252.49 240.657C1252.1 241.047 1252.1 241.681 1252.49 242.071C1252.88 242.462 1253.51 242.462 1253.9 242.071L1260.27 235.707ZM1243 236H1259.56V234H1243V236Z" fill="black"/>
<path d="M816.848 220.562H821.73V239.566C821.73 241.728 821.262 243.538 820.324 244.996C819.387 246.454 818.111 247.555 816.496 248.297C814.895 249.026 813.104 249.391 811.125 249.391C809.081 249.391 807.258 249.026 805.656 248.297C804.055 247.555 802.792 246.454 801.867 244.996C800.956 243.538 800.5 241.728 800.5 239.566V220.562H805.383V239.566C805.383 240.934 805.617 242.06 806.086 242.945C806.555 243.818 807.219 244.462 808.078 244.879C808.938 245.296 809.953 245.504 811.125 245.504C812.297 245.504 813.306 245.296 814.152 244.879C815.012 244.462 815.676 243.818 816.145 242.945C816.613 242.06 816.848 240.934 816.848 239.566V220.562ZM826.613 219H831.32V244.488L830.871 249H826.613V219ZM845.109 238.238V238.648C845.109 240.211 844.934 241.65 844.582 242.965C844.243 244.267 843.723 245.4 843.02 246.363C842.329 247.327 841.47 248.076 840.441 248.609C839.426 249.13 838.247 249.391 836.906 249.391C835.591 249.391 834.445 249.143 833.469 248.648C832.492 248.154 831.672 247.451 831.008 246.539C830.357 245.628 829.829 244.54 829.426 243.277C829.022 242.014 828.736 240.621 828.566 239.098V237.789C828.736 236.253 829.022 234.859 829.426 233.609C829.829 232.346 830.357 231.259 831.008 230.348C831.672 229.423 832.486 228.714 833.449 228.219C834.426 227.724 835.565 227.477 836.867 227.477C838.221 227.477 839.413 227.737 840.441 228.258C841.483 228.779 842.349 229.521 843.039 230.484C843.729 231.435 844.243 232.568 844.582 233.883C844.934 235.198 845.109 236.65 845.109 238.238ZM840.402 238.648V238.238C840.402 237.288 840.324 236.396 840.168 235.562C840.012 234.716 839.751 233.974 839.387 233.336C839.035 232.698 838.553 232.197 837.941 231.832C837.342 231.454 836.594 231.266 835.695 231.266C834.862 231.266 834.146 231.409 833.547 231.695C832.948 231.982 832.447 232.372 832.043 232.867C831.639 233.362 831.32 233.935 831.086 234.586C830.865 235.237 830.715 235.94 830.637 236.695V240.23C830.754 241.207 831.001 242.105 831.379 242.926C831.77 243.733 832.316 244.384 833.02 244.879C833.723 245.361 834.628 245.602 835.734 245.602C836.607 245.602 837.342 245.426 837.941 245.074C838.54 244.723 839.016 244.234 839.367 243.609C839.732 242.971 839.992 242.229 840.148 241.383C840.318 240.536 840.402 239.625 840.402 238.648ZM858.41 249.391C856.848 249.391 855.435 249.137 854.172 248.629C852.922 248.108 851.854 247.385 850.969 246.461C850.096 245.536 849.426 244.449 848.957 243.199C848.488 241.949 848.254 240.602 848.254 239.156V238.375C848.254 236.721 848.495 235.224 848.977 233.883C849.458 232.542 850.129 231.396 850.988 230.445C851.848 229.482 852.863 228.746 854.035 228.238C855.207 227.73 856.477 227.477 857.844 227.477C859.354 227.477 860.676 227.73 861.809 228.238C862.941 228.746 863.879 229.462 864.621 230.387C865.376 231.298 865.936 232.385 866.301 233.648C866.678 234.911 866.867 236.305 866.867 237.828V239.84H850.539V236.461H862.219V236.09C862.193 235.243 862.023 234.449 861.711 233.707C861.411 232.965 860.949 232.366 860.324 231.91C859.699 231.454 858.866 231.227 857.824 231.227C857.043 231.227 856.346 231.396 855.734 231.734C855.135 232.06 854.634 232.535 854.23 233.16C853.827 233.785 853.514 234.54 853.293 235.426C853.085 236.298 852.98 237.281 852.98 238.375V239.156C852.98 240.081 853.104 240.94 853.352 241.734C853.612 242.516 853.99 243.199 854.484 243.785C854.979 244.371 855.578 244.833 856.281 245.172C856.984 245.497 857.785 245.66 858.684 245.66C859.816 245.66 860.826 245.432 861.711 244.977C862.596 244.521 863.365 243.876 864.016 243.043L866.496 245.445C866.04 246.109 865.448 246.747 864.719 247.359C863.99 247.958 863.098 248.447 862.043 248.824C861.001 249.202 859.79 249.391 858.41 249.391ZM875.266 231.891V249H870.559V227.867H875.051L875.266 231.891ZM881.73 227.73L881.691 232.105C881.405 232.053 881.092 232.014 880.754 231.988C880.428 231.962 880.103 231.949 879.777 231.949C878.97 231.949 878.26 232.066 877.648 232.301C877.036 232.522 876.522 232.848 876.105 233.277C875.702 233.694 875.389 234.202 875.168 234.801C874.947 235.4 874.816 236.07 874.777 236.812L873.703 236.891C873.703 235.562 873.833 234.332 874.094 233.199C874.354 232.066 874.745 231.07 875.266 230.211C875.799 229.352 876.464 228.681 877.258 228.199C878.065 227.717 878.996 227.477 880.051 227.477C880.337 227.477 880.643 227.503 880.969 227.555C881.307 227.607 881.561 227.665 881.73 227.73Z" fill="white"/>
</svg>
