<svg width="17" height="17" viewBox="0 0 17 17" fill="none" xmlns="http://www.w3.org/2000/svg">
<path d="M16.5 8.25603C16.5 12.5259 12.9321 16.0121 8.5 16.0121C4.0679 16.0121 0.5 12.5259 0.5 8.25603C0.5 3.98612 4.0679 0.5 8.5 0.5C12.9321 0.5 16.5 3.98612 16.5 8.25603Z" stroke="#FFFEFE"/>
<line y1="7.5" x2="17" y2="7.5" stroke="#FFFEFE"/>
<path d="M11.4509 8.23132C11.4155 10.4337 11.0342 12.3995 10.4639 13.7934C10.1781 14.4918 9.85501 15.0217 9.52568 15.3672C9.19685 15.7122 8.89998 15.837 8.64707 15.8332C8.39416 15.8293 8.10144 15.6956 7.78386 15.3408C7.4658 14.9854 7.1599 14.4461 6.8967 13.7393C6.37146 12.3288 6.05352 10.3524 6.08892 8.15001C6.12433 5.94764 6.50564 3.98183 7.07596 2.58797C7.36175 1.88949 7.68485 1.35966 8.01418 1.01411C8.343 0.669086 8.63988 0.54434 8.89279 0.548176C9.1457 0.552011 9.43842 0.685698 9.75599 1.04052C10.0741 1.39589 10.38 1.93526 10.6432 2.64207C11.1684 4.05254 11.4863 6.02896 11.4509 8.23132Z" stroke="#FFFEFE"/>
</svg>
