<svg width="49" height="19" viewBox="0 0 49 19" fill="none" xmlns="http://www.w3.org/2000/svg">
<path d="M10.793 0.9375H13.043V12.4805C13.043 13.7617 12.7578 14.8281 12.1875 15.6797C11.6172 16.5312 10.8594 17.1719 9.91406 17.6016C8.97656 18.0234 7.95703 18.2344 6.85547 18.2344C5.69922 18.2344 4.65234 18.0234 3.71484 17.6016C2.78516 17.1719 2.04688 16.5312 1.5 15.6797C0.960938 14.8281 0.691406 13.7617 0.691406 12.4805V0.9375H2.92969V12.4805C2.92969 13.3711 3.09375 14.1055 3.42188 14.6836C3.75 15.2617 4.20703 15.6914 4.79297 15.9727C5.38672 16.2539 6.07422 16.3945 6.85547 16.3945C7.64453 16.3945 8.33203 16.2539 8.91797 15.9727C9.51172 15.6914 9.97266 15.2617 10.3008 14.6836C10.6289 14.1055 10.793 13.3711 10.793 12.4805V0.9375ZM16.2539 0H18.4336V15.5391L18.2461 18H16.2539V0ZM27 11.5547V11.8008C27 12.7227 26.8906 13.5781 26.6719 14.3672C26.4531 15.1484 26.1328 15.8281 25.7109 16.4062C25.2891 16.9844 24.7734 17.4336 24.1641 17.7539C23.5547 18.0742 22.8555 18.2344 22.0664 18.2344C21.2617 18.2344 20.5547 18.0977 19.9453 17.8242C19.3438 17.543 18.8359 17.1406 18.4219 16.6172C18.0078 16.0938 17.6758 15.4609 17.4258 14.7188C17.1836 13.9766 17.0156 13.1406 16.9219 12.2109V11.1328C17.0156 10.1953 17.1836 9.35547 17.4258 8.61328C17.6758 7.87109 18.0078 7.23828 18.4219 6.71484C18.8359 6.18359 19.3438 5.78125 19.9453 5.50781C20.5469 5.22656 21.2461 5.08594 22.043 5.08594C22.8398 5.08594 23.5469 5.24219 24.1641 5.55469C24.7812 5.85938 25.2969 6.29688 25.7109 6.86719C26.1328 7.4375 26.4531 8.12109 26.6719 8.91797C26.8906 9.70703 27 10.5859 27 11.5547ZM24.8203 11.8008V11.5547C24.8203 10.9219 24.7617 10.3281 24.6445 9.77344C24.5273 9.21094 24.3398 8.71875 24.082 8.29688C23.8242 7.86719 23.4844 7.53125 23.0625 7.28906C22.6406 7.03906 22.1211 6.91406 21.5039 6.91406C20.957 6.91406 20.4805 7.00781 20.0742 7.19531C19.6758 7.38281 19.3359 7.63672 19.0547 7.95703C18.7734 8.26953 18.543 8.62891 18.3633 9.03516C18.1914 9.43359 18.0625 9.84766 17.9766 10.2773V13.1016C18.1016 13.6484 18.3047 14.1758 18.5859 14.6836C18.875 15.1836 19.2578 15.5938 19.7344 15.9141C20.2188 16.2344 20.8164 16.3945 21.5273 16.3945C22.1133 16.3945 22.6133 16.2773 23.0273 16.043C23.4492 15.8008 23.7891 15.4688 24.0469 15.0469C24.3125 14.625 24.5078 14.1367 24.6328 13.582C24.7578 13.0273 24.8203 12.4336 24.8203 11.8008ZM35.0039 18.2344C34.1211 18.2344 33.3203 18.0859 32.6016 17.7891C31.8906 17.4844 31.2773 17.0586 30.7617 16.5117C30.2539 15.9648 29.8633 15.3164 29.5898 14.5664C29.3164 13.8164 29.1797 12.9961 29.1797 12.1055V11.6133C29.1797 10.582 29.332 9.66406 29.6367 8.85938C29.9414 8.04688 30.3555 7.35938 30.8789 6.79688C31.4023 6.23438 31.9961 5.80859 32.6602 5.51953C33.3242 5.23047 34.0117 5.08594 34.7227 5.08594C35.6289 5.08594 36.4102 5.24219 37.0664 5.55469C37.7305 5.86719 38.2734 6.30469 38.6953 6.86719C39.1172 7.42188 39.4297 8.07812 39.6328 8.83594C39.8359 9.58594 39.9375 10.4062 39.9375 11.2969V12.2695H30.4688V10.5H37.7695V10.3359C37.7383 9.77344 37.6211 9.22656 37.418 8.69531C37.2227 8.16406 36.9102 7.72656 36.4805 7.38281C36.0508 7.03906 35.4648 6.86719 34.7227 6.86719C34.2305 6.86719 33.7773 6.97266 33.3633 7.18359C32.9492 7.38672 32.5938 7.69141 32.2969 8.09766C32 8.50391 31.7695 9 31.6055 9.58594C31.4414 10.1719 31.3594 10.8477 31.3594 11.6133V12.1055C31.3594 12.707 31.4414 13.2734 31.6055 13.8047C31.7773 14.3281 32.0234 14.7891 32.3438 15.1875C32.6719 15.5859 33.0664 15.8984 33.5273 16.125C33.9961 16.3516 34.5273 16.4648 35.1211 16.4648C35.8867 16.4648 36.5352 16.3086 37.0664 15.9961C37.5977 15.6836 38.0625 15.2656 38.4609 14.7422L39.7734 15.7852C39.5 16.1992 39.1523 16.5938 38.7305 16.9688C38.3086 17.3438 37.7891 17.6484 37.1719 17.8828C36.5625 18.1172 35.8398 18.2344 35.0039 18.2344ZM44.6367 7.3125V18H42.4688V5.32031H44.5781L44.6367 7.3125ZM48.5977 5.25L48.5859 7.26562C48.4062 7.22656 48.2344 7.20312 48.0703 7.19531C47.9141 7.17969 47.7344 7.17188 47.5312 7.17188C47.0312 7.17188 46.5898 7.25 46.207 7.40625C45.8242 7.5625 45.5 7.78125 45.2344 8.0625C44.9688 8.34375 44.7578 8.67969 44.6016 9.07031C44.4531 9.45312 44.3555 9.875 44.3086 10.3359L43.6992 10.6875C43.6992 9.92188 43.7734 9.20312 43.9219 8.53125C44.0781 7.85938 44.3164 7.26562 44.6367 6.75C44.957 6.22656 45.3633 5.82031 45.8555 5.53125C46.3555 5.23438 46.9492 5.08594 47.6367 5.08594C47.793 5.08594 47.9727 5.10547 48.1758 5.14453C48.3789 5.17578 48.5195 5.21094 48.5977 5.25Z" fill="white"/>
</svg>
